<svg class="marks" width="497" height="347" viewBox="0 0 497 347" version="1.1" xmlns="http://www.w3.org/2000/svg" xmlns:xlink="http://www.w3.org/1999/xlink"><rect width="497" height="347" style="fill: white;"></rect><defs><linearGradient id="gradient_0" x1="0" x2="0" y1="1" y2="0"><stop offset="0" stop-color="rgb(207, 225, 242)"></stop><stop offset="0.05555555555555555" stop-color="rgb(198, 220, 239)"></stop><stop offset="0.1111111111111111" stop-color="rgb(188, 215, 235)"></stop><stop offset="0.16666666666666666" stop-color="rgb(175, 209, 231)"></stop><stop offset="0.2222222222222222" stop-color="rgb(162, 203, 227)"></stop><stop offset="0.2777777777777778" stop-color="rgb(149, 196, 224)"></stop><stop offset="0.3333333333333333" stop-color="rgb(134, 188, 220)"></stop><stop offset="0.3888888888888889" stop-color="rgb(119, 180, 216)"></stop><stop offset="0.4444444444444444" stop-color="rgb(105, 171, 211)"></stop><stop offset="0.5" stop-color="rgb(91, 163, 207)"></stop><stop offset="0.5555555555555556" stop-color="rgb(79, 154, 202)"></stop><stop offset="0.6111111111111112" stop-color="rgb(67, 144, 197)"></stop><stop offset="0.6666666666666666" stop-color="rgb(56, 135, 192)"></stop><stop offset="0.7222222222222222" stop-color="rgb(45, 125, 187)"></stop><stop offset="0.7777777777777778" stop-color="rgb(36, 115, 180)"></stop><stop offset="0.8333333333333334" stop-color="rgb(27, 105, 173)"></stop><stop offset="0.8888888888888888" stop-color="rgb(20, 94, 166)"></stop><stop offset="0.9444444444444444" stop-color="rgb(14, 84, 155)"></stop><stop offset="1" stop-color="rgb(10, 74, 144)"></stop></linearGradient><clipPath id="clip1"><rect x="0" y="0" width="400" height="300"></rect></clipPath><clipPath id="clip2"><rect x="0" y="0" width="400" height="300"></rect></clipPath><clipPath id="clip3"><rect x="0" y="0" width="400" height="300"></rect></clipPath><clipPath id="clip4"><rect x="0" y="0" width="400" height="300"></rect></clipPath><clipPath id="clip5"><rect x="0" y="0" width="400" height="300"></rect></clipPath><clipPath id="clip6"><rect x="0" y="0" width="400" height="300"></rect></clipPath><clipPath id="clip7"><rect x="0" y="0" width="400" height="300"></rect></clipPath><clipPath id="clip8"><rect x="0" y="0" width="400" height="300"></rect></clipPath><clipPath id="clip9"><rect x="0" y="0" width="400" height="300"></rect></clipPath><clipPath id="clip10"><rect x="0" y="0" width="400" height="300"></rect></clipPath></defs><g transform="translate(43,10)"><g class="mark-group role-frame root"><g transform="translate(0,0)"><path class="background" d="M0.5,0.5h400v300h-400Z" style="fill: none; stroke: #ddd;"></path><g><g class="mark-group role-axis"><g transform="translate(0.5,300.5)"><path class="background" d="M0,0h0v0h0Z" style="pointer-events: none; fill: none;"></path><g><g class="mark-rule role-axis-grid" style="pointer-events: none;"><line transform="translate(0,-300)" x2="0" y2="300" style="fill: none; stroke: #ddd; stroke-width: 1; opacity: 1;"></line><line transform="translate(44,-300)" x2="0" y2="300" style="fill: none; stroke: #ddd; stroke-width: 1; opacity: 1;"></line><line transform="translate(89,-300)" x2="0" y2="300" style="fill: none; stroke: #ddd; stroke-width: 1; opacity: 1;"></line><line transform="translate(133,-300)" x2="0" y2="300" style="fill: none; stroke: #ddd; stroke-width: 1; opacity: 1;"></line><line transform="translate(178,-300)" x2="0" y2="300" style="fill: none; stroke: #ddd; stroke-width: 1; opacity: 1;"></line><line transform="translate(222,-300)" x2="0" y2="300" style="fill: none; stroke: #ddd; stroke-width: 1; opacity: 1;"></line><line transform="translate(267,-300)" x2="0" y2="300" style="fill: none; stroke: #ddd; stroke-width: 1; opacity: 1;"></line><line transform="translate(311,-300)" x2="0" y2="300" style="fill: none; stroke: #ddd; stroke-width: 1; opacity: 1;"></line><line transform="translate(356,-300)" x2="0" y2="300" style="fill: none; stroke: #ddd; stroke-width: 1; opacity: 1;"></line><line transform="translate(400,-300)" x2="0" y2="300" style="fill: none; stroke: #ddd; stroke-width: 1; opacity: 1;"></line></g></g><path class="foreground" d="" style="pointer-events: none; display: none; fill: none;"></path></g></g><g class="mark-group role-axis"><g transform="translate(0.5,0.5)"><path class="background" d="M0,0h0v0h0Z" style="pointer-events: none; fill: none;"></path><g><g class="mark-rule role-axis-grid" style="pointer-events: none;"><line transform="translate(0,300)" x2="400" y2="0" style="fill: none; stroke: #ddd; stroke-width: 1; opacity: 1;"></line><line transform="translate(0,270)" x2="400" y2="0" style="fill: none; stroke: #ddd; stroke-width: 1; opacity: 1;"></line><line transform="translate(0,240)" x2="400" y2="0" style="fill: none; stroke: #ddd; stroke-width: 1; opacity: 1;"></line><line transform="translate(0,210)" x2="400" y2="0" style="fill: none; stroke: #ddd; stroke-width: 1; opacity: 1;"></line><line transform="translate(0,180)" x2="400" y2="0" style="fill: none; stroke: #ddd; stroke-width: 1; opacity: 1;"></line><line transform="translate(0,150)" x2="400" y2="0" style="fill: none; stroke: #ddd; stroke-width: 1; opacity: 1;"></line><line transform="translate(0,120)" x2="400" y2="0" style="fill: none; stroke: #ddd; stroke-width: 1; opacity: 1;"></line><line transform="translate(0,90)" x2="400" y2="0" style="fill: none; stroke: #ddd; stroke-width: 1; opacity: 1;"></line><line transform="translate(0,60)" x2="400" y2="0" style="fill: none; stroke: #ddd; stroke-width: 1; opacity: 1;"></line><line transform="translate(0,30)" x2="400" y2="0" style="fill: none; stroke: #ddd; stroke-width: 1; opacity: 1;"></line><line transform="translate(0,0)" x2="400" y2="0" style="fill: none; stroke: #ddd; stroke-width: 1; opacity: 1;"></line></g></g><path class="foreground" d="" style="pointer-events: none; display: none; fill: none;"></path></g></g><g class="mark-group role-axis"><g transform="translate(0.5,300.5)"><path class="background" d="M0,0h0v0h0Z" style="pointer-events: none; fill: none;"></path><g><g class="mark-rule role-axis-tick" style="pointer-events: none;"><line transform="translate(0,0)" x2="0" y2="5" style="fill: none; stroke: #888; stroke-width: 1; opacity: 1;"></line><line transform="translate(44,0)" x2="0" y2="5" style="fill: none; stroke: #888; stroke-width: 1; opacity: 1;"></line><line transform="translate(89,0)" x2="0" y2="5" style="fill: none; stroke: #888; stroke-width: 1; opacity: 1;"></line><line transform="translate(133,0)" x2="0" y2="5" style="fill: none; stroke: #888; stroke-width: 1; opacity: 1;"></line><line transform="translate(178,0)" x2="0" y2="5" style="fill: none; stroke: #888; stroke-width: 1; opacity: 1;"></line><line transform="translate(222,0)" x2="0" y2="5" style="fill: none; stroke: #888; stroke-width: 1; opacity: 1;"></line><line transform="translate(267,0)" x2="0" y2="5" style="fill: none; stroke: #888; stroke-width: 1; opacity: 1;"></line><line transform="translate(311,0)" x2="0" y2="5" style="fill: none; stroke: #888; stroke-width: 1; opacity: 1;"></line><line transform="translate(356,0)" x2="0" y2="5" style="fill: none; stroke: #888; stroke-width: 1; opacity: 1;"></line><line transform="translate(400,0)" x2="0" y2="5" style="fill: none; stroke: #888; stroke-width: 1; opacity: 1;"></line></g><g class="mark-text role-axis-label" style="pointer-events: none;"><text text-anchor="start" transform="translate(0,15)" style="font-family: sans-serif; font-size: 10px; fill: #000; opacity: 1;">0.1</text><text text-anchor="middle" transform="translate(44.44444444444445,15)" style="font-family: sans-serif; font-size: 10px; fill: #000; opacity: 1;">0.2</text><text text-anchor="middle" transform="translate(88.88888888888889,15)" style="font-family: sans-serif; font-size: 10px; fill: #000; opacity: 1;">0.3</text><text text-anchor="middle" transform="translate(133.33333333333334,15)" style="font-family: sans-serif; font-size: 10px; fill: #000; opacity: 1;">0.4</text><text text-anchor="middle" transform="translate(177.7777777777778,15)" style="font-family: sans-serif; font-size: 10px; fill: #000; opacity: 1;">0.5</text><text text-anchor="middle" transform="translate(222.22222222222223,15)" style="font-family: sans-serif; font-size: 10px; fill: #000; opacity: 1;">0.6</text><text text-anchor="middle" transform="translate(266.66666666666663,15)" style="font-family: sans-serif; font-size: 10px; fill: #000; opacity: 1;">0.7</text><text text-anchor="middle" transform="translate(311.11111111111114,15)" style="font-family: sans-serif; font-size: 10px; fill: #000; opacity: 1;">0.8</text><text text-anchor="middle" transform="translate(355.5555555555556,15)" style="font-family: sans-serif; font-size: 10px; fill: #000; opacity: 1;">0.9</text><text text-anchor="end" transform="translate(400,15)" style="font-family: sans-serif; font-size: 10px; fill: #000; opacity: 1;">1.0</text></g><g class="mark-rule role-axis-domain" style="pointer-events: none;"><line transform="translate(0,0)" x2="400" y2="0" style="fill: none; stroke: #888; stroke-width: 1; opacity: 1;"></line></g><g class="mark-text role-axis-title" style="pointer-events: none;"><text text-anchor="middle" transform="translate(200,30)" style="font-family: sans-serif; font-size: 11px; font-weight: bold; fill: #000; opacity: 1;">x</text></g></g><path class="foreground" d="" style="pointer-events: none; display: none; fill: none;"></path></g></g><g class="mark-group role-axis"><g transform="translate(0.5,0.5)"><path class="background" d="M0,0h0v0h0Z" style="pointer-events: none; fill: none;"></path><g><g class="mark-rule role-axis-tick" style="pointer-events: none;"><line transform="translate(0,300)" x2="-5" y2="0" style="fill: none; stroke: #888; stroke-width: 1; opacity: 1;"></line><line transform="translate(0,270)" x2="-5" y2="0" style="fill: none; stroke: #888; stroke-width: 1; opacity: 1;"></line><line transform="translate(0,240)" x2="-5" y2="0" style="fill: none; stroke: #888; stroke-width: 1; opacity: 1;"></line><line transform="translate(0,210)" x2="-5" y2="0" style="fill: none; stroke: #888; stroke-width: 1; opacity: 1;"></line><line transform="translate(0,180)" x2="-5" y2="0" style="fill: none; stroke: #888; stroke-width: 1; opacity: 1;"></line><line transform="translate(0,150)" x2="-5" y2="0" style="fill: none; stroke: #888; stroke-width: 1; opacity: 1;"></line><line transform="translate(0,120)" x2="-5" y2="0" style="fill: none; stroke: #888; stroke-width: 1; opacity: 1;"></line><line transform="translate(0,90)" x2="-5" y2="0" style="fill: none; stroke: #888; stroke-width: 1; opacity: 1;"></line><line transform="translate(0,60)" x2="-5" y2="0" style="fill: none; stroke: #888; stroke-width: 1; opacity: 1;"></line><line transform="translate(0,30)" x2="-5" y2="0" style="fill: none; stroke: #888; stroke-width: 1; opacity: 1;"></line><line transform="translate(0,0)" x2="-5" y2="0" style="fill: none; stroke: #888; stroke-width: 1; opacity: 1;"></line></g><g class="mark-text role-axis-label" style="pointer-events: none;"><text text-anchor="end" transform="translate(-7,303)" style="font-family: sans-serif; font-size: 10px; fill: #000; opacity: 1;">0.0</text><text text-anchor="end" transform="translate(-7,273)" style="font-family: sans-serif; font-size: 10px; fill: #000; opacity: 1;">0.1</text><text text-anchor="end" transform="translate(-7,243)" style="font-family: sans-serif; font-size: 10px; fill: #000; opacity: 1;">0.2</text><text text-anchor="end" transform="translate(-7,213)" style="font-family: sans-serif; font-size: 10px; fill: #000; opacity: 1;">0.3</text><text text-anchor="end" transform="translate(-7,183)" style="font-family: sans-serif; font-size: 10px; fill: #000; opacity: 1;">0.4</text><text text-anchor="end" transform="translate(-7,153)" style="font-family: sans-serif; font-size: 10px; fill: #000; opacity: 1;">0.5</text><text text-anchor="end" transform="translate(-7,123)" style="font-family: sans-serif; font-size: 10px; fill: #000; opacity: 1;">0.6</text><text text-anchor="end" transform="translate(-7,93.00000000000001)" style="font-family: sans-serif; font-size: 10px; fill: #000; opacity: 1;">0.7</text><text text-anchor="end" transform="translate(-7,62.999999999999986)" style="font-family: sans-serif; font-size: 10px; fill: #000; opacity: 1;">0.8</text><text text-anchor="end" transform="translate(-7,32.99999999999999)" style="font-family: sans-serif; font-size: 10px; fill: #000; opacity: 1;">0.9</text><text text-anchor="end" transform="translate(-7,3)" style="font-family: sans-serif; font-size: 10px; fill: #000; opacity: 1;">1.0</text></g><g class="mark-rule role-axis-domain" style="pointer-events: none;"><line transform="translate(0,300)" x2="0" y2="-300" style="fill: none; stroke: #888; stroke-width: 1; opacity: 1;"></line></g><g class="mark-text role-axis-title" style="pointer-events: none;"><text text-anchor="middle" transform="translate(-26.916666984558105,150) rotate(-90) translate(0,-2)" style="font-family: sans-serif; font-size: 11px; font-weight: bold; fill: #000; opacity: 1;">y_scale</text></g></g><path class="foreground" d="" style="pointer-events: none; display: none; fill: none;"></path></g></g><g class="mark-group role-scope pathgroup"><g transform="translate(0,0)"><path class="background" d="M0,0h400v300h-400Z" style="fill: none;"></path><g><g class="mark-line role-mark marks" clip-path="url(#clip1)"><path d="M0,299.9695320129995L4.0404040404040416,299.9391502582379L8.080808080808083,299.8859675059691L12.121212121212125,299.7976112993146L16.161616161616156,299.65729012156504L20.202020202020197,299.44304081540065L24.24242424242424,299.12706948934414L28.28282828282828,298.6752441809065L32.32323232323232,298.04679519821605L36.36363636363637,297.19427314028337L40.4040404040404,296.0638054450811L44.44444444444445,294.59568044715536L48.484848484848484,292.7252739810327L52.52525252525253,290.3843182642168L56.56565656565656,287.50249689571075L60.606060606060595,284.0093340760435L64.64646464646464,279.83633132285684L68.68686868686868,274.9192916891122L72.72727272727273,269.2007603680038L76.76767676767675,262.632502062005L80.80808080808082,255.17792995535817L84.84848484848484,246.81439878421625L88.88888888888889,237.53527544072114L92.92929292929291,227.35170474291684L96.96969696969695,216.29399529662544L101.010101010101,204.41256050267216L105.05050505050504,191.7783623602905L109.09090909090908,178.48282034121317L113.13131313131312,164.63716375156787L117.17171717171719,150.37122310861915L121.21212121212119,135.83167356024808L125.25252525252526,121.17976068506484L129.29292929292927,106.58855556195165L133.33333333333334,92.23980125265588L137.37373737373736,78.32042631004546L141.41414141414143,65.01881217986555L145.45454545454547,52.52091005077531L149.49494949494954,41.006308554770186L153.53535353535352,30.644356546447515L157.5757575757576,21.590444907582594L161.6161616161616,13.982547941377177L165.65656565656565,7.938118540493367L169.6969696969697,3.5514221270047996L173.73737373737373,0.8913826461529051L177.7777777777778,0L181.81818181818178,0.8913826461529051L185.85858585858585,3.5514221270047996L189.89898989898987,7.9381185404939L193.93939393939394,13.982547941377177L197.97979797979798,21.590444907582594L202.02020202020202,30.644356546447515L206.06060606060606,41.006308554770186L210.10101010101013,52.52091005077531L214.14141414141415,65.01881217986555L218.18181818181822,78.32042631004546L222.22222222222223,92.23980125265588L226.26262626262624,106.58855556195131L230.3030303030303,121.17976068506484L234.3434343434343,135.83167356024808L238.38383838383837,150.37122310861915L242.42424242424238,164.63716375156787L246.46464646464645,178.48282034121317L250.50505050505046,191.7783623602903L254.54545454545453,204.41256050267216L258.58585858585855,216.29399529662544L262.6262626262626,227.35170474291684L266.66666666666663,237.53527544072105L270.70707070707067,246.81439878421608L274.7474747474747,255.17792995535817L278.78787878787875,262.63250206200485L282.82828282828285,269.2007603680038L286.86868686868684,274.91929168911213L290.90909090909093,279.83633132285684L294.9494949494949,284.00933407604344L298.989898989899,287.5024968957107L303.030303030303,290.3843182642168L307.07070707070704,292.7252739810327L311.1111111111111,294.59568044715536L315.1515151515151,296.0638054450811L319.19191919191917,297.19427314028337L323.2323232323232,298.04679519821605L327.27272727272725,298.6752441809065L331.3131313131313,299.12706948934414L335.35353535353534,299.44304081540065L339.3939393939394,299.65729012156504L343.4343434343434,299.7976112993146L347.47474747474746,299.8859675059691L351.5151515151515,299.9391502582379L355.55555555555554,299.9695320129995L359.5959595959596,299.98585532921345L363.63636363636357,299.9940066754968L367.67676767676767,299.997731157898L371.71717171717165,299.99925525048974L375.75757575757575,299.99979711303246L379.79797979797974,299.9999571425256L383.83838383838383,299.9999937355124L387.8787878787878,299.9999994881554L391.91919191919186,299.99999998552306L395.95959595959596,299.9999999999693L400,300" style="fill: none; stroke: rgb(207, 225, 242); stroke-width: 2;"></path></g></g><path class="foreground" d="" style="display: none; fill: none;"></path></g><g transform="translate(0,0)"><path class="background" d="M0,0h400v300h-400Z" style="fill: none;"></path><g><g class="mark-line role-mark marks" clip-path="url(#clip2)"><path d="M0,299.9999982923319L4.0404040404040416,299.9999939170953L8.080808080808083,299.99998064235075L12.121212121212125,299.9999440498139L16.161616161616156,299.9998511867585L20.202020202020197,299.9996319115977L24.24242424242424,299.99914596377357L28.28282828282828,299.9981279726991L32.32323232323232,299.99610010879843L36.36363636363637,299.99223952664505L40.4040404040404,299.9851855011802L44.44444444444445,299.9727696560383L48.484848484848484,299.95165243834145L52.52525252525253,299.91685053666305L56.56565656565656,299.86114375537585L60.606060606060595,299.7743563228402L64.64646464646464,299.6425169099408L68.68686868686868,299.44691370353166L72.72727272727273,299.16307534651526L76.76767676767675,298.75972472052905L80.80808080808082,298.19776937600267L84.84848484848484,297.42940858001145L88.88888888888889,296.39745090231935L92.92929292929291,295.0349463197762L96.96969696969695,293.2652413223444L101.010101010101,291.0025629404619L105.05050505050504,288.15322678510864L109.09090909090908,284.61754436224606L113.13131313131312,280.2924759471948L117.17171717171719,275.0750377254953L121.21212121212119,268.8664270094287L125.25252525252526,261.57677914799245L129.29292929292927,253.1304169665567L133.33333333333334,243.47140146347368L137.37373737373736,232.56914469915526L141.41414141414143,220.42380613970107L145.45454545454547,207.0711658589138L149.49494949494954,192.58665527266314L153.53535353535352,177.08823112876306L157.5757575757576,160.73780303471875L161.6161616161616,143.7409694714999L165.65656565656565,126.3448813232563L169.6969696969697,108.83413339891108L173.73737373737373,91.5246798346676L177.7777777777778,74.75587401729916L181.81818181818178,58.88084210374708L185.85858585858585,44.25550495502601L189.89898989898987,31.226659621499188L193.93939393939394,20.11961175671543L197.97979797979798,11.225908372793047L202.02020202020202,4.7917510387788464L206.06060606060606,1.0076692228044748L210.10101010101013,0L214.14141414141415,1.8246538096392206L218.18181818181822,6.46354850671732L222.22222222222223,13.82396990883551L226.26262626262624,23.740972660747428L230.3030303030303,35.98277846942207L234.3434343434343,50.25896877350513L238.38383838383837,66.2311155426334L242.42424242424238,83.52535702025172L246.46464646464645,101.74631403640457L250.50505050505046,120.49166489494169L254.54545454545453,139.36665869397856L258.58585858585855,157.9978517049917L262.6262626262626,176.0453997130414L266.66666666666663,193.2133285983793L270.70707070707067,209.2573305473372L274.7474747474747,223.98978606293147L278.78787878787875,237.2818821640362L282.82828282828285,249.06287309205334L286.86868686868684,259.31669913070806L290.90909090909093,268.0763297523153L294.9494949494949,275.4163184887311L298.989898989899,281.4441401483934L303.030303030303,286.2909206980218L307.07070707070704,290.10216425629926L311.1111111111111,293.0290319458044L315.1515151515151,295.2206392642627L319.19191919191917,296.81772089489795L323.2323232323232,297.9478757295194L327.27272727272725,298.72246305887495L331.3131313131313,299.2350863665671L335.35353535353534,299.56148584401L339.3939393939394,299.7605741921115L343.4343434343434,299.876298682548L347.47474747474746,299.93999794231127L351.5151515151515,299.9729423339787L355.55555555555554,299.98879598958933L359.5959595959596,299.99580725771733L363.63636363636357,299.998611486003L367.67676767676767,299.99960446878777L371.71717171717165,299.9999068741513L375.75757575757575,299.99998290588576L379.79797979797974,299.9999977655687L383.83838383838383,299.9999998213052L387.8787878787878,299.999999993422L391.91919191919186,299.99999999994117L395.95959595959596,300L400,300" style="fill: none; stroke: rgb(188, 215, 235); stroke-width: 2;"></path></g></g><path class="foreground" d="" style="display: none; fill: none;"></path></g><g transform="translate(0,0)"><path class="background" d="M0,0h400v300h-400Z" style="fill: none;"></path><g><g class="mark-line role-mark marks" clip-path="url(#clip3)"><path d="M0,299.999999999995L4.0404040404040416,299.99999999996504L8.080808080808083,299.9999999997934L12.121212121212125,299.99999999894163L16.161616161616156,299.9999999952127L20.202020202020197,299.99999998057154L24.24242424242424,299.9999999283354L28.28282828282828,299.9999997571496L32.32323232323232,299.9999992371573L36.36363636363637,299.99999776187616L40.4040404040404,299.99999382705727L44.44444444444445,299.99998390574666L48.484848484848484,299.99996014280936L52.52525252525253,299.999905850677L56.56565656565656,299.9997870908868L60.606060606060595,299.999537576987L64.64646464646464,299.9990326297749L68.68686868686868,299.99804585957713L72.72727272727273,299.996179578356L76.76767676767675,299.9927566576185L80.80808080808082,299.98665775187203L84.84848484848484,299.97608375463795L88.88888888888889,299.95821948466295L92.92929292929291,299.9287715680221L96.96969696969695,299.88135216038137L101.010101010101,299.80668160642995L105.05050505050504,299.6915885435619L109.09090909090908,299.5177965072417L113.13131313131312,299.26050280049384L117.17171717171719,298.8867788854932L121.21212121212119,298.3538518640799L125.25252525252526,297.6073629120838L129.29292929292927,296.5797389499663L133.33333333333334,295.18885533032085L137.37373737373736,293.33720568424917L141.41414141414143,290.91182504289634L145.45454545454547,287.78522797527563L149.49494949494954,283.8176185939099L153.53535353535352,278.860598187982L157.5757575757576,272.76253454868106L161.6161616161616,265.37566250778667L165.65656565656565,256.5648585600377L169.6969696969697,246.21787809214212L173.73737373737373,234.25667018071115L177.7777777777778,220.64920472467335L181.81818181818178,205.42107605046138L185.85858585858585,188.66600490916582L189.89898989898987,170.55426692294898L193.93939393939394,151.338049115724L197.97979797979798,131.35279311120698L202.02020202020202,111.01373429911213L206.06060606060606,90.80709342003904L210.10101010101013,71.27571379616498L214.14141414141415,52.99934660678972L218.18181818181822,36.570240590135214L222.22222222222223,22.565154687613298L226.26262626262624,11.515339250703494L230.3030303030303,3.8763775180499005L234.3434343434343,0L238.38383838383837,0.1100430370569061L242.42424242424238,4.284594098898231L246.46464646464645,12.446041888234149L250.50505050505046,24.360240205494378L254.54545454545453,39.64533288804313L258.58585858585855,57.790024771621454L262.6262626262626,78.18028841388649L266.66666666666663,100.13274614009966L270.70707070707067,122.93234163081027L274.7474747474747,145.87148730053008L278.78787878787875,168.28769902015625L282.82828282828285,189.59683936086836L286.86868686868684,209.3194847894823L290.90909090909093,227.09857824469984L294.9494949494949,242.7073619306117L298.989898989899,256.0475163042091L303.030303030303,267.13835522356766L307.07070707070704,276.0987370370403L311.1111111111111,283.12395222915814L315.1515151515151,288.46017112445656L319.19191919191917,292.3790476047332L323.2323232323232,295.1547865737591L327.27272727272725,297.04544546420897L331.3131313131313,298.27953933590715L335.35353535353534,299.0482621823047L339.3939393939394,299.50293493983804L343.4343434343434,299.75673973506656L347.47474747474746,299.8894655543206L351.5151515151515,299.95389666479485L355.55555555555554,299.98260151850775L359.5959595959596,299.99416865034624L363.63636363636357,299.99830614127353L367.67676767676767,299.9995874913849L371.71717171717165,299.9999196038899L375.75757575757575,299.99998828649865L379.79797979797974,299.999998852131L383.83838383838383,299.9999999366204L387.8787878787878,299.9999999985853L391.91919191919186,299.9999999999939L395.95959595959596,300L400,300" style="fill: none; stroke: rgb(162, 203, 227); stroke-width: 2;"></path></g></g><path class="foreground" d="" style="display: none; fill: none;"></path></g><g transform="translate(0,0)"><path class="background" d="M0,0h400v300h-400Z" style="fill: none;"></path><g><g class="mark-line role-mark marks" clip-path="url(#clip4)"><path d="M0,300L4.0404040404040416,300L8.080808080808083,300L12.121212121212125,300L16.161616161616156,299.9999999999999L20.202020202020197,299.99999999999926L24.24242424242424,299.99999999999574L28.28282828282828,299.99999999997766L32.32323232323232,299.99999999989427L36.36363636363637,299.9999999995425L40.4040404040404,299.99999999817686L44.44444444444445,299.9999999932577L48.484848484848484,299.99999997671046L52.52525252525253,299.9999999244391L56.56565656565656,299.99999976860965L60.606060606060595,299.9999993282961L64.64646464646464,299.9999981445379L68.68686868686868,299.99999510626117L72.72727272727273,299.9999876388641L76.76767676767675,299.99997001651644L80.80808080808082,299.99992998843123L84.84848484848484,299.99984228423926L88.88888888888889,299.99965655292294L92.92929292929291,299.9992757225437L96.96969696969695,299.99851843817453L101.010101010101,299.99705591946406L105.05050505050504,299.9943090721731L109.09090909090908,299.9892858633675L113.13131313131312,299.98033186637826L117.17171717171719,299.9647588145787L121.21212121212119,299.9383076927845L125.25252525252526,299.8943955930938L129.29292929292927,299.8230911466648L133.33333333333334,299.70976434617717L137.37373737373736,299.533366092824L141.41414141414143,299.26431425107006L145.45454545454547,298.8619996621478L149.49494949494954,298.2719799637373L153.53535353535352,297.4230020867432L157.5757575757576,296.22408429232655L161.6161616161616,294.5619904342247L165.65656565656565,292.2995334421817L169.6969696969697,289.2752379871825L173.73737373737373,285.30495595096056L177.7777777777778,280.1860418430053L181.81818181818178,273.70463720243856L185.85858585858585,265.64646436246255L189.89898989898987,255.81127834316203L193.93939393939394,244.03076951118075L197.97979797979798,230.1892622736674L202.02020202020202,214.24604744530347L206.06060606060606,196.25766762408256L210.10101010101013,176.39801219115807L214.14141414141415,154.9737490694328L218.18181818181822,132.43250445352066L222.22222222222223,109.36137063044386L226.26262626262624,86.47382446139744L230.3030303030303,64.58398779620474L234.3434343434343,44.56832169738044L238.38383838383837,27.316231397843183L242.42424242424238,13.672529086835583L246.46464646464645,4.376075928233359L250.50505050505046,0L254.54545454545453,0.8994652699226502L258.58585858585855,7.172888244866648L262.6262626262626,18.641673958849115L266.66666666666663,34.85197939078364L270.70707070707067,55.09983089538149L274.7474747474747,78.47835466640308L278.78787878787875,103.94324732954993L282.82828282828285,130.3902881640968L286.86868686868684,156.73703883202086L290.90909090909093,182.00018446986613L294.9494949494949,205.36040626406876L298.989898989899,226.20823343805185L303.030303030303,244.16680855671572L307.07070707070704,259.0905532847047L311.1111111111111,271.0418677115462L315.1515151515151,280.2507287762436L319.19191919191917,287.06392935944643L323.2323232323232,291.89142915876636L327.27272727272725,295.15679666679864L331.3131313131313,297.25716778569154L335.35353535353534,298.53589176462015L339.3939393939394,299.2685617630764L343.4343434343434,299.66092936944545L347.47474747474746,299.8556717721168L351.5151515151515,299.94432034896647L355.55555555555554,299.9808498872438L359.5959595959596,299.99425139926876L363.63636363636357,299.9985353756241L367.67676767676767,299.9996950648883L371.71717171717165,299.9999508048854L375.75757575757575,299.9999943108287L379.79797979797974,299.9999995820351L383.83838383838383,299.99999998406656L387.8787878787878,299.99999999978434L391.91919191919186,299.99999999999955L395.95959595959596,300L400,300" style="fill: none; stroke: rgb(134, 188, 220); stroke-width: 2;"></path></g></g><path class="foreground" d="" style="display: none; fill: none;"></path></g><g transform="translate(0,0)"><path class="background" d="M0,0h400v300h-400Z" style="fill: none;"></path><g><g class="mark-line role-mark marks" clip-path="url(#clip5)"><path d="M0,300L4.0404040404040416,300L8.080808080808083,300L12.121212121212125,300L16.161616161616156,300L20.202020202020197,300L24.24242424242424,300L28.28282828282828,300L32.32323232323232,300L36.36363636363637,299.99999999999994L40.4040404040404,299.99999999999955L44.44444444444445,299.9999999999976L48.484848484848484,299.9999999999886L52.52525252525253,299.999999999949L56.56565656565656,299.9999999997886L60.606060606060595,299.9999999991798L64.64646464646464,299.99999999700833L68.68686868686868,299.9999999896978L72.72727272727273,299.9999999663793L76.76767676767675,299.9999998956657L80.80808080808082,299.999999691175L84.84848484848484,299.9999991257029L88.88888888888889,299.99999762672695L92.92929292929291,299.99999380903427L96.96969696969695,299.9999844481674L101.010101010101,299.9999623098347L105.05050505050504,299.99991172504565L109.09090909090908,299.9997998821367L113.13131313131312,299.99956026441197L117.17171717171719,299.9990621758111L121.21212121212119,299.9980564533968L125.25252525252526,299.9960817774353L129.29292929292927,299.9923079565543L133.33333333333334,299.9852817913297L137.37373737373736,299.97252750978873L141.41414141414143,299.94993780866923L145.45454545454547,299.9108746467248L149.49494949494954,299.8448838693756L153.53535353535352,299.7359189196217L157.5757575757576,299.5599725830514L161.6161616161616,299.28203989863823L165.65656565656565,298.8523890425715L169.6969696969697,298.20220883066105L173.73737373737373,297.23883769545586L177.7777777777778,295.84096047752314L181.81818181818178,293.8543784346495L185.85858585858585,291.0891950703332L189.89898989898987,287.31948229767727L193.93939393939394,282.2866504817184L197.97979797979798,275.70778310384367L202.02020202020202,267.29004868927336L206.06060606060606,256.7519122616701L210.10101010101013,243.8512001726499L214.14141414141415,228.4191277233279L218.18181818181822,210.39823380330458L222.22222222222223,189.88089951998444L226.26262626262624,167.14394110088756L230.3030303030303,142.6738944978908L234.3434343434343,117.1773047646381L238.38383838383837,91.57082899039047L242.42424242424238,66.94741096801842L246.46464646464645,44.517208320087356L250.50505050505046,25.52518896967493L254.54545454545453,11.151005698400096L258.58585858585855,2.4003674122750063L262.6262626262626,0L266.66666666666663,4.309765686780597L270.70707070707067,15.265052693462044L274.7474747474747,32.35989144226876L278.78787878787875,54.67651735654495L282.82828282828285,80.96083558650284L286.86868686868684,109.73639719158066L290.90909090909093,139.44327289139494L294.9494949494949,168.58384309020374L298.989898989899,195.85600306992586L303.030303030303,220.25610264717213L307.07070707070704,241.13892225089162L311.1111111111111,258.22925727346984L315.1515151515151,271.58781539857574L319.19191919191917,281.54145960735497L323.2323232323232,288.5928391175464L327.27272727272725,293.32616842377L331.3131313131313,296.3241685967531L335.35353535353534,298.10665006743136L339.3939393939394,299.09521804320264L343.4343434343434,299.60270690181113L347.47474747474746,299.8415811818878L351.5151515151515,299.9434721440623L355.55555555555554,299.9822812462096L359.5959595959596,299.9952361612062L363.63636363636357,299.99893542275765L367.67676767676767,299.9998105111356L371.71717171717165,299.99997469474226L375.75757575757575,299.99999767719294L379.79797979797974,299.9999998720651L383.83838383838383,299.99999999663277L387.8787878787878,299.9999999999724L391.91919191919186,299.99999999999994L395.95959595959596,300L400,300" style="fill: none; stroke: rgb(105, 171, 211); stroke-width: 2;"></path></g></g><path class="foreground" d="" style="display: none; fill: none;"></path></g><g transform="translate(0,0)"><path class="background" d="M0,0h400v300h-400Z" style="fill: none;"></path><g><g class="mark-line role-mark marks" clip-path="url(#clip6)"><path d="M0,300L4.0404040404040416,300L8.080808080808083,300L12.121212121212125,300L16.161616161616156,300L20.202020202020197,300L24.24242424242424,300L28.28282828282828,300L32.32323232323232,300L36.36363636363637,300L40.4040404040404,300L44.44444444444445,299.99999999999994L48.484848484848484,299.99999999999966L52.52525252525253,299.999999999998L56.56565656565656,299.9999999999898L60.606060606060595,299.9999999999525L64.64646464646464,299.99999999979286L68.68686868686868,299.99999999915474L72.72727272727273,299.9999999967582L76.76767676767675,299.9999999882682L80.80808080808082,299.99999995979863L84.84848484848484,299.9999998691459L88.88888888888889,299.9999995942633L92.92929292929291,299.99999879846524L96.96969696969695,299.99999659368376L101.010101010101,299.9999907355424L105.05050505050504,299.9999757791511L109.09090909090908,299.9999390227975L113.13131313131312,299.9998519314835L117.17171717171719,299.99965268494293L121.21212121212119,299.99921196676235L125.25252525252526,299.9982683083292L129.29292929292927,299.9963102091777L133.33333333333334,299.9923687298065L137.37373737373736,299.9846652531821L141.41414141414143,299.9700341352362L145.45454545454547,299.94300973410446L149.49494949494954,299.89443469216917L153.53535353535352,299.80941742883095L157.5757575757576,299.6644518582074L161.6161616161616,299.42352631561675L165.65656565656565,299.0331106073284L169.6969696969697,298.41604092433613L173.73737373737373,297.46454050908875L177.7777777777778,296.03292861118615L181.81818181818178,293.93097273430595L185.85858585858585,290.91929384679554L189.89898989898987,286.70867143288297L193.93939393939394,280.96540941953043L197.97979797979798,273.32498064253235L202.02020202020202,263.4158220081518L206.06060606060606,250.89428155579L210.10101010101013,235.49026176055975L214.14141414141415,217.0611077627366L218.18181818181822,195.64894628370848L222.22222222222223,171.53434136425798L226.26262626262624,145.2772851402677L230.3030303030303,117.73574554684208L234.3434343434343,90.05276857801961L238.38383838383837,63.60581998403413L242.42424242424238,39.916664716062L246.46464646464645,20.526205431034526L250.50505050505046,6.8454594176407095L254.54545454545453,0L258.58585858585855,0.6893142579076139L262.6262626262626,9.083368639060929L266.66666666666663,24.775453073500785L270.70707070707067,46.80310414330261L274.7474747474747,73.73853543965377L278.78787878787875,103.83833654671187L282.82828282828285,135.2315893974915L286.86868686868684,166.11835823328605L290.90909090909093,194.94851619212778L294.9494949494949,220.55474846444355L298.989898989899,242.22261206804473L303.030303030303,259.69274665331807L307.07070707070704,273.1029194821722L311.1111111111111,282.88767470924785L315.1515151515151,289.65877660488457L319.19191919191917,294.08952385235574L323.2323232323232,296.8210009513534L327.27272727272725,298.4002861664768L331.3131313131313,299.25200441578687L335.35353535353534,299.6776497478736L339.3939393939394,299.8732054248847L343.4343434343434,299.95501159097955L347.47474747474746,299.98580744266985L351.5151515151515,299.99608984453374L355.55555555555554,299.9990802598293L359.5959595959596,299.99982060632357L363.63636363636357,299.99997207934956L367.67676767676767,299.9999967084933L371.71717171717165,299.99999972680274L375.75757575757575,299.9999999856561L379.79797979797974,299.99999999959647L383.83838383838383,299.9999999999954L387.8787878787878,300L391.91919191919186,300L395.95959595959596,300L400,300" style="fill: none; stroke: rgb(79, 154, 202); stroke-width: 2;"></path></g></g><path class="foreground" d="" style="display: none; fill: none;"></path></g><g transform="translate(0,0)"><path class="background" d="M0,0h400v300h-400Z" style="fill: none;"></path><g><g class="mark-line role-mark marks" clip-path="url(#clip7)"><path d="M0,300L4.0404040404040416,300L8.080808080808083,300L12.121212121212125,300L16.161616161616156,300L20.202020202020197,300L24.24242424242424,300L28.28282828282828,300L32.32323232323232,300L36.36363636363637,300L40.4040404040404,300L44.44444444444445,300L48.484848484848484,300L52.52525252525253,300L56.56565656565656,299.99999999999994L60.606060606060595,299.9999999999996L64.64646464646464,299.99999999999784L68.68686868686868,299.999999999989L72.72727272727273,299.99999999994793L76.76767676767675,299.99999999976995L80.80808080808082,299.999999999045L84.84848484848484,299.99999999626334L88.88888888888889,299.99999998617454L92.92929292929291,299.99999995148283L96.96969696969695,299.999999838076L101.010101010101,299.9999994847729L105.05050505050504,299.99999843347956L109.09090909090908,299.9999954394606L113.13131313131312,299.9999872633247L117.17171717171719,299.99996581750753L121.21212121212119,299.9999117032211L125.25252525252526,299.9997801591498L129.29292929292927,299.99947171120493L133.33333333333334,299.9987732292048L137.37373737373736,299.99724405635675L141.41414141414143,299.9940043314698L145.45454545454547,299.9873563229863L149.49494949494954,299.97413270567876L153.53535353535352,299.94861796472117L157.5757575757576,299.90083357074747L161.6161616161616,299.8139229507885L165.65656565656565,299.66033543827507L169.6969696969697,299.39651612979014L173.73737373737373,298.9558975088081L177.7777777777778,298.24020140449613L181.81818181818178,297.10943584312076L185.85858585858585,295.3715318786586L189.89898989898987,292.77329318483214L193.93939393939394,288.9951480148321L197.97979797979798,283.65294345232184L202.02020202020202,276.31047010498145L206.06060606060606,266.5062585133563L210.10101010101013,253.79715106255617L214.14141414141415,237.8190147093173L218.18181818181822,218.36170374521836L222.22222222222223,195.4512891480385L226.26262626262624,169.42828186549923L230.3030303030303,141.00706752106842L234.3434343434343,111.30021155440552L238.38383838383837,81.79279315788673L242.42424242424238,54.257176434162346L246.46464646464645,30.60755466999584L250.50505050505046,12.705127977249031L254.54545454545453,2.1367998457308524L258.58585858585855,0L262.6262626262626,6.730767142147565L266.66666666666663,22.00939590399439L270.70707070707067,44.767140101864285L274.7474747474747,73.30007812903163L278.78787878787875,105.47569838959393L282.82828282828285,138.99879212306766L286.86868686868684,171.69069691708046L290.90909090909093,201.7333420125149L294.9494949494949,227.83791934646842L298.989898989899,249.3153483642161L303.030303030303,266.0474697437298L307.07070707070704,278.37831801301013L311.1111111111111,286.95867161534164L315.1515151515151,292.5813324996798L319.19191919191917,296.0392623374112L323.2323232323232,298.02663690004545L327.27272727272725,299.0885336010415L331.3131313131313,299.6127490480572L335.35353535353534,299.85004912877474L339.3939393939394,299.94766337141124L343.4343434343434,299.983753888511L347.47474747474746,299.9955877622097L351.5151515151515,299.9989727258753L355.55555555555554,299.99980017232804L359.5959595959596,299.99996858238694L363.63636363636357,299.99999617819316L367.67676767676767,299.9999996609748L371.71717171717165,299.9999999798165L375.75757575757575,299.999999999286L379.79797979797974,299.99999999998755L383.83838383838383,299.99999999999994L387.8787878787878,300L391.91919191919186,300L395.95959595959596,300L400,300" style="fill: none; stroke: rgb(56, 135, 192); stroke-width: 2;"></path></g></g><path class="foreground" d="" style="display: none; fill: none;"></path></g><g transform="translate(0,0)"><path class="background" d="M0,0h400v300h-400Z" style="fill: none;"></path><g><g class="mark-line role-mark marks" clip-path="url(#clip8)"><path d="M0,300L4.0404040404040416,300L8.080808080808083,300L12.121212121212125,300L16.161616161616156,300L20.202020202020197,300L24.24242424242424,300L28.28282828282828,300L32.32323232323232,300L36.36363636363637,300L40.4040404040404,300L44.44444444444445,300L48.484848484848484,300L52.52525252525253,300L56.56565656565656,300L60.606060606060595,300L64.64646464646464,300L68.68686868686868,300L72.72727272727273,299.99999999999994L76.76767676767675,299.9999999999999L80.80808080808082,299.9999999999993L84.84848484848484,299.9999999999965L88.88888888888889,299.999999999983L92.92929292929291,299.99999999992303L96.96969696969695,299.99999999967105L101.010101010101,299.9999999986692L105.05050505050504,299.99999999489216L109.09090909090908,299.999999981355L113.13131313131312,299.9999999351281L117.17171717171719,299.99999978442304L121.21212121212119,299.999999314497L125.25252525252526,299.9999979106L129.29292929292927,299.99999388603464L133.33333333333334,299.99998279945834L137.37373737373736,299.9999534138325L141.41414141414143,299.9998783817514L145.45454545454547,299.9996936235815L149.49494949494954,299.9992544539022L153.53535353535352,299.99824585080194L157.5757575757576,299.99600601310067L161.6161616161616,299.991192815833L165.65656565656565,299.98117786018213L169.6969696969697,299.96098927514873L173.73737373737373,299.92154228269L177.7777777777778,299.84680290407266L181.81818181818178,299.7094443753884L185.85858585858585,299.4645147427595L189.89898989898987,299.04069569680786L193.93939393939394,298.32897419125055L197.97979797979798,297.16905459708755L202.02020202020202,295.3346770918855L206.06060606060606,292.52018635429556L210.10101010101013,288.3321125918018L214.14141414141415,282.2909253796282L218.18181818181822,273.8490586184578L222.22222222222223,262.4311890894674L226.26262626262624,247.50094697206094L230.3030303030303,228.65426846008035L234.3434343434343,205.73341858928492L238.38383838383837,178.9479600194194L242.42424242424238,148.9811146508873L246.46464646464645,117.05432451814161L250.50505050505046,84.92198956512563L254.54545454545453,54.77457240905335L258.58585858585855,29.042397696602062L262.6262626262626,10.113212342371758L266.66666666666663,0L270.70707070707067,0.015607246801008223L274.7474747474747,10.520671253978776L278.78787878787875,30.805815511773517L282.82828282828285,59.14649371326676L286.86868686868684,93.03280208324831L290.90909090909093,129.5356948067164L294.9494949494949,165.7369093082632L298.989898989899,199.13337792788778L303.030303030303,227.93404954081976L307.07070707070704,251.1964677534343L311.1111111111111,268.7932004126064L315.1515151515151,281.2407300832915L319.19191919191917,289.4525049629861L323.2323232323232,294.4856566249755L327.27272727272725,297.3376552913627L331.3131313131313,298.8225333278953L335.35353535353534,299.5275233727579L339.3939393939394,299.82995255123774L343.4343434343434,299.94586486386L347.47474747474746,299.985013212767L351.5151515151515,299.9964676563553L355.55555555555554,299.99930987821597L359.5959595959596,299.9998920223535L363.63636363636357,299.99998707101963L367.67676767676767,299.99999888600263L371.71717171717165,299.9999999366435L375.75757575757575,299.9999999979043L379.79797979797974,299.99999999996686L383.83838383838383,299.99999999999983L387.8787878787878,300L391.91919191919186,300L395.95959595959596,300L400,300" style="fill: none; stroke: rgb(36, 115, 180); stroke-width: 2;"></path></g></g><path class="foreground" d="" style="display: none; fill: none;"></path></g><g transform="translate(0,0)"><path class="background" d="M0,0h400v300h-400Z" style="fill: none;"></path><g><g class="mark-line role-mark marks" clip-path="url(#clip9)"><path d="M0,300L4.0404040404040416,300L8.080808080808083,300L12.121212121212125,300L16.161616161616156,300L20.202020202020197,300L24.24242424242424,300L28.28282828282828,300L32.32323232323232,300L36.36363636363637,300L40.4040404040404,300L44.44444444444445,300L48.484848484848484,300L52.52525252525253,300L56.56565656565656,300L60.606060606060595,300L64.64646464646464,300L68.68686868686868,300L72.72727272727273,300L76.76767676767675,300L80.80808080808082,300L84.84848484848484,299.99999999999994L88.88888888888889,299.9999999999999L92.92929292929291,299.99999999999943L96.96969696969695,299.99999999999704L101.010101010101,299.9999999999854L105.05050505050504,299.9999999999321L109.09090909090908,299.9999999997013L113.13131313131312,299.99999999875587L117.17171717171719,299.9999999950791L121.21212121212119,299.9999999814757L125.25252525252526,299.9999999335037L129.29292929292927,299.9999997719743L133.33333333333334,299.9999992518047L137.37373737373736,299.9999976474038L141.41414141414143,299.99999290120024L145.45454545454547,299.9999794182226L149.49494949494954,299.9999425947835L153.53535353535352,299.99984580921506L157.5757575757576,299.99960076119106L161.6161616161616,299.99900260751906L165.65656565656565,299.9975938909244L169.6969696969697,299.9943907568286L173.73737373737373,299.9873548093711L177.7777777777778,299.9724170312454L181.81818181818178,299.9417515192464L185.85858585858585,299.8808588787634L189.89898989898987,299.7638703038827L193.93939393939394,299.5463685224106L197.97979797979798,299.1550226156655L202.02020202020202,298.4735726865096L206.06060606060606,297.32532912616915L210.10101010101013,295.45351334174967L214.14141414141415,292.5025271288205L218.18181818181822,288.0054823530031L222.22222222222223,281.385650385252L226.26262626262624,271.98114509070086L230.3030303030303,259.10205772565564L234.3434343434343,242.1262296279524L238.38383838383837,220.63299442097133L242.42424242424238,194.56353321953426L246.46464646464645,164.38338739436796L250.50505050505046,131.21030853004262L254.54545454545453,96.86355879225711L258.58585858585855,63.793896073173485L262.6262626262626,34.870181894888205L266.66666666666663,13.028666584878746L270.70707070707067,0.8293270609540548L274.7474747474747,0L278.78787878787875,11.070651290309929L282.82828282828285,33.19577678107167L286.86868686868684,64.22813358121682L290.90909090909093,101.04754625678196L294.9494949494949,140.080580537026L298.989898989899,177.89246059337145L303.030303030303,211.71157040422509L307.07070707070704,239.76838213048234L311.1111111111111,261.3882442239296L315.1515151515151,276.85068445773635L319.19191919191917,287.09039434087026L323.2323232323232,293.345801896664L327.27272727272725,296.8531539700569L331.3131313131313,298.64645208442573L335.35353535353534,299.47590899810723L339.3939393939394,299.8195715323237L343.4343434343434,299.9455912499552L347.47474747474746,299.9858898152473L351.5151515151515,299.99692392000844L355.55555555555554,299.99945228297156L359.5959595959596,299.9999232466328L363.63636363636357,299.99999193909383L367.67676767676767,299.9999994062152L371.71717171717165,299.9999999720457L375.75757575757575,299.99999999926604L379.79797979797974,299.9999999999913L383.83838383838383,299.99999999999994L387.8787878787878,300L391.91919191919186,300L395.95959595959596,300L400,300" style="fill: none; stroke: rgb(20, 94, 166); stroke-width: 2;"></path></g></g><path class="foreground" d="" style="display: none; fill: none;"></path></g><g transform="translate(0,0)"><path class="background" d="M0,0h400v300h-400Z" style="fill: none;"></path><g><g class="mark-line role-mark marks" clip-path="url(#clip10)"><path d="M0,300L4.0404040404040416,300L8.080808080808083,300L12.121212121212125,300L16.161616161616156,300L20.202020202020197,300L24.24242424242424,300L28.28282828282828,300L32.32323232323232,300L36.36363636363637,300L40.4040404040404,300L44.44444444444445,300L48.484848484848484,300L52.52525252525253,300L56.56565656565656,300L60.606060606060595,300L64.64646464646464,300L68.68686868686868,300L72.72727272727273,300L76.76767676767675,300L80.80808080808082,300L84.84848484848484,300L88.88888888888889,300L92.92929292929291,300L96.96969696969695,299.99999999999994L101.010101010101,299.99999999999983L105.05050505050504,299.99999999999915L109.09090909090908,299.9999999999954L113.13131313131312,299.999999999977L117.17171717171719,299.9999999998916L121.21212121212119,299.999999999517L125.25252525252526,299.99999999795796L129.29292929292927,299.99999999179386L133.33333333333334,299.99999996859606L137.37373737373736,299.9999998853605L141.41414141414143,299.9999996001773L145.45454545454547,299.9999986658437L149.49494949494954,299.99999573494614L153.53535353535352,299.99998692184107L157.5757575757576,299.9999614916271L161.6161616161616,299.9998910088076L165.65656565656565,299.99970320407795L169.6969696969697,299.99922174697383L173.73737373737373,299.99803342100836L177.7777777777778,299.99520787890003L181.81818181818178,299.988732275489L185.85858585858585,299.9744216721569L189.89898989898987,299.94391572295217L193.93939393939394,299.881171802313L197.97979797979798,299.75663675980707L202.02020202020202,299.51808898756906L206.06060606060606,299.0771179030355L210.10101010101013,298.29055192114004L214.14141414141415,296.93711817882513L218.18181818181822,294.691466645677L222.22222222222223,291.1005209325027L226.26262626262624,285.5706888978651L230.3030303030303,277.3779883315169L234.3434343434343,265.7151622824084L238.38383838383837,249.78838617969657L242.42424242424238,228.96919609379216L246.46464646464645,202.9937002066142L250.50505050505046,172.18196683387592L254.54545454545453,137.62974188285938L258.58585858585855,101.30945816690974L262.6262626262626,66.01661033682174L266.66666666666663,35.11822449893416L270.70707070707067,12.103968433476364L274.7474747474747,0L278.78787878787875,0.76392747009153L282.82828282828285,14.81365414264647L286.86868686868684,40.833570689274055L290.90909090909093,75.94148712428817L294.9494949494949,116.2014541875942L298.989898989899,157.36247814735583L303.030303030303,195.63046047377262L307.07070707070704,228.27111105553857L311.1111111111111,253.90156609545437L315.1515151515151,272.43508361989683L319.19191919191917,284.7534028560229L323.2323232323232,292.2519226324486L327.27272727272725,296.41092110494975L331.3131313131313,298.4986050609739L335.35353535353534,299.4390432484106L339.3939393939394,299.81527047937476L343.4343434343434,299.94723395220956L347.47474747474746,299.98718102911914L351.5151515151515,299.99741519012326L355.55555555555554,299.99958054724385L359.5959595959596,299.9999473549771L363.63636363636357,299.9999951504688L367.67676767676767,299.99999969459907L371.71717171717165,299.99999998809847L375.75757575757575,299.999999999752L379.79797979797974,299.9999999999978L383.83838383838383,300L387.8787878787878,300L391.91919191919186,300L395.95959595959596,300L400,300" style="fill: none; stroke: rgb(10, 74, 144); stroke-width: 2;"></path></g></g><path class="foreground" d="" style="display: none; fill: none;"></path></g></g><g class="mark-group role-legend"><g transform="translate(418,0)"><path class="background" d="M0,0h31v216h-31Z" style="pointer-events: none; fill: none;"></path><g><g class="mark-group role-legend-entry"><g transform="translate(0,16)"><path class="background" d="M0,0h0v0h0Z" style="pointer-events: none; fill: none;"></path><g><g class="mark-rect role-legend-gradient" style="pointer-events: none;"><path d="M0,0h16v200h-16Z" style="fill: url(#gradient_0); stroke: #ddd; stroke-width: 0; opacity: 1;"></path></g><g class="mark-text role-legend-label" style="pointer-events: none;"><text text-anchor="start" transform="translate(18,198)" style="font-family: sans-serif; font-size: 10px; fill: #000; opacity: 1;">0</text><text text-anchor="start" transform="translate(18,158.55555555555557)" style="font-family: sans-serif; font-size: 10px; fill: #000; opacity: 1;">20</text><text text-anchor="start" transform="translate(18,114.11111111111111)" style="font-family: sans-serif; font-size: 10px; fill: #000; opacity: 1;">40</text><text text-anchor="start" transform="translate(18,69.66666666666667)" style="font-family: sans-serif; font-size: 10px; fill: #000; opacity: 1;">60</text><text text-anchor="start" transform="translate(18,25.222222222222232)" style="font-family: sans-serif; font-size: 10px; fill: #000; opacity: 1;">80</text></g></g><path class="foreground" d="" style="pointer-events: none; display: none; fill: none;"></path></g></g><g class="mark-text role-legend-title" style="pointer-events: none;"><text text-anchor="start" transform="translate(0,9)" style="font-family: sans-serif; font-size: 11px; font-weight: bold; fill: #000; opacity: 1;">step</text></g></g><path class="foreground" d="" style="pointer-events: none; display: none; fill: none;"></path></g></g></g><path class="foreground" d="" style="display: none; fill: none;"></path></g></g></g></svg>