<svg class="marks" width="549" height="347" viewBox="0 0 549 347" version="1.1" xmlns="http://www.w3.org/2000/svg" xmlns:xlink="http://www.w3.org/1999/xlink"><rect width="549" height="347" style="fill: white;"></rect><defs><linearGradient id="gradient_0" x1="0" x2="0" y1="1" y2="0"><stop offset="0" stop-color="rgb(207, 225, 242)"></stop><stop offset="0.05555555555555555" stop-color="rgb(198, 220, 239)"></stop><stop offset="0.1111111111111111" stop-color="rgb(188, 215, 235)"></stop><stop offset="0.16666666666666666" stop-color="rgb(175, 209, 231)"></stop><stop offset="0.2222222222222222" stop-color="rgb(162, 203, 227)"></stop><stop offset="0.2777777777777778" stop-color="rgb(149, 196, 224)"></stop><stop offset="0.3333333333333333" stop-color="rgb(134, 188, 220)"></stop><stop offset="0.3888888888888889" stop-color="rgb(119, 180, 216)"></stop><stop offset="0.4444444444444444" stop-color="rgb(105, 171, 211)"></stop><stop offset="0.5" stop-color="rgb(91, 163, 207)"></stop><stop offset="0.5555555555555556" stop-color="rgb(79, 154, 202)"></stop><stop offset="0.6111111111111112" stop-color="rgb(67, 144, 197)"></stop><stop offset="0.6666666666666666" stop-color="rgb(56, 135, 192)"></stop><stop offset="0.7222222222222222" stop-color="rgb(45, 125, 187)"></stop><stop offset="0.7777777777777778" stop-color="rgb(36, 115, 180)"></stop><stop offset="0.8333333333333334" stop-color="rgb(27, 105, 173)"></stop><stop offset="0.8888888888888888" stop-color="rgb(20, 94, 166)"></stop><stop offset="0.9444444444444444" stop-color="rgb(14, 84, 155)"></stop><stop offset="1" stop-color="rgb(10, 74, 144)"></stop></linearGradient><clipPath id="clip1"><rect x="0" y="0" width="400" height="300"></rect></clipPath><clipPath id="clip2"><rect x="0" y="0" width="400" height="300"></rect></clipPath><clipPath id="clip3"><rect x="0" y="0" width="400" height="300"></rect></clipPath><clipPath id="clip4"><rect x="0" y="0" width="400" height="300"></rect></clipPath><clipPath id="clip5"><rect x="0" y="0" width="400" height="300"></rect></clipPath><clipPath id="clip6"><rect x="0" y="0" width="400" height="300"></rect></clipPath><clipPath id="clip7"><rect x="0" y="0" width="400" height="300"></rect></clipPath><clipPath id="clip8"><rect x="0" y="0" width="400" height="300"></rect></clipPath><clipPath id="clip9"><rect x="0" y="0" width="400" height="300"></rect></clipPath><clipPath id="clip10"><rect x="0" y="0" width="400" height="300"></rect></clipPath></defs><g transform="translate(43,10)"><g class="mark-group role-frame root"><g transform="translate(0,0)"><path class="background" d="M0.5,0.5h400v300h-400Z" style="fill: none; stroke: #ddd;"></path><g><g class="mark-group role-axis"><g transform="translate(0.5,300.5)"><path class="background" d="M0,0h0v0h0Z" style="pointer-events: none; fill: none;"></path><g><g class="mark-rule role-axis-grid" style="pointer-events: none;"><line transform="translate(0,-300)" x2="0" y2="300" style="fill: none; stroke: #ddd; stroke-width: 1; opacity: 1;"></line><line transform="translate(44,-300)" x2="0" y2="300" style="fill: none; stroke: #ddd; stroke-width: 1; opacity: 1;"></line><line transform="translate(89,-300)" x2="0" y2="300" style="fill: none; stroke: #ddd; stroke-width: 1; opacity: 1;"></line><line transform="translate(133,-300)" x2="0" y2="300" style="fill: none; stroke: #ddd; stroke-width: 1; opacity: 1;"></line><line transform="translate(178,-300)" x2="0" y2="300" style="fill: none; stroke: #ddd; stroke-width: 1; opacity: 1;"></line><line transform="translate(222,-300)" x2="0" y2="300" style="fill: none; stroke: #ddd; stroke-width: 1; opacity: 1;"></line><line transform="translate(267,-300)" x2="0" y2="300" style="fill: none; stroke: #ddd; stroke-width: 1; opacity: 1;"></line><line transform="translate(311,-300)" x2="0" y2="300" style="fill: none; stroke: #ddd; stroke-width: 1; opacity: 1;"></line><line transform="translate(356,-300)" x2="0" y2="300" style="fill: none; stroke: #ddd; stroke-width: 1; opacity: 1;"></line><line transform="translate(400,-300)" x2="0" y2="300" style="fill: none; stroke: #ddd; stroke-width: 1; opacity: 1;"></line></g></g><path class="foreground" d="" style="pointer-events: none; display: none; fill: none;"></path></g></g><g class="mark-group role-axis"><g transform="translate(0.5,0.5)"><path class="background" d="M0,0h0v0h0Z" style="pointer-events: none; fill: none;"></path><g><g class="mark-rule role-axis-grid" style="pointer-events: none;"><line transform="translate(0,300)" x2="400" y2="0" style="fill: none; stroke: #ddd; stroke-width: 1; opacity: 1;"></line><line transform="translate(0,270)" x2="400" y2="0" style="fill: none; stroke: #ddd; stroke-width: 1; opacity: 1;"></line><line transform="translate(0,240)" x2="400" y2="0" style="fill: none; stroke: #ddd; stroke-width: 1; opacity: 1;"></line><line transform="translate(0,210)" x2="400" y2="0" style="fill: none; stroke: #ddd; stroke-width: 1; opacity: 1;"></line><line transform="translate(0,180)" x2="400" y2="0" style="fill: none; stroke: #ddd; stroke-width: 1; opacity: 1;"></line><line transform="translate(0,150)" x2="400" y2="0" style="fill: none; stroke: #ddd; stroke-width: 1; opacity: 1;"></line><line transform="translate(0,120)" x2="400" y2="0" style="fill: none; stroke: #ddd; stroke-width: 1; opacity: 1;"></line><line transform="translate(0,90)" x2="400" y2="0" style="fill: none; stroke: #ddd; stroke-width: 1; opacity: 1;"></line><line transform="translate(0,60)" x2="400" y2="0" style="fill: none; stroke: #ddd; stroke-width: 1; opacity: 1;"></line><line transform="translate(0,30)" x2="400" y2="0" style="fill: none; stroke: #ddd; stroke-width: 1; opacity: 1;"></line><line transform="translate(0,0)" x2="400" y2="0" style="fill: none; stroke: #ddd; stroke-width: 1; opacity: 1;"></line></g></g><path class="foreground" d="" style="pointer-events: none; display: none; fill: none;"></path></g></g><g class="mark-group role-axis"><g transform="translate(0.5,300.5)"><path class="background" d="M0,0h0v0h0Z" style="pointer-events: none; fill: none;"></path><g><g class="mark-rule role-axis-tick" style="pointer-events: none;"><line transform="translate(0,0)" x2="0" y2="5" style="fill: none; stroke: #888; stroke-width: 1; opacity: 1;"></line><line transform="translate(44,0)" x2="0" y2="5" style="fill: none; stroke: #888; stroke-width: 1; opacity: 1;"></line><line transform="translate(89,0)" x2="0" y2="5" style="fill: none; stroke: #888; stroke-width: 1; opacity: 1;"></line><line transform="translate(133,0)" x2="0" y2="5" style="fill: none; stroke: #888; stroke-width: 1; opacity: 1;"></line><line transform="translate(178,0)" x2="0" y2="5" style="fill: none; stroke: #888; stroke-width: 1; opacity: 1;"></line><line transform="translate(222,0)" x2="0" y2="5" style="fill: none; stroke: #888; stroke-width: 1; opacity: 1;"></line><line transform="translate(267,0)" x2="0" y2="5" style="fill: none; stroke: #888; stroke-width: 1; opacity: 1;"></line><line transform="translate(311,0)" x2="0" y2="5" style="fill: none; stroke: #888; stroke-width: 1; opacity: 1;"></line><line transform="translate(356,0)" x2="0" y2="5" style="fill: none; stroke: #888; stroke-width: 1; opacity: 1;"></line><line transform="translate(400,0)" x2="0" y2="5" style="fill: none; stroke: #888; stroke-width: 1; opacity: 1;"></line></g><g class="mark-text role-axis-label" style="pointer-events: none;"><text text-anchor="start" transform="translate(0,15)" style="font-family: sans-serif; font-size: 10px; fill: #000; opacity: 1;">0.1</text><text text-anchor="middle" transform="translate(44.44444444444445,15)" style="font-family: sans-serif; font-size: 10px; fill: #000; opacity: 1;">0.2</text><text text-anchor="middle" transform="translate(88.88888888888889,15)" style="font-family: sans-serif; font-size: 10px; fill: #000; opacity: 1;">0.3</text><text text-anchor="middle" transform="translate(133.33333333333334,15)" style="font-family: sans-serif; font-size: 10px; fill: #000; opacity: 1;">0.4</text><text text-anchor="middle" transform="translate(177.7777777777778,15)" style="font-family: sans-serif; font-size: 10px; fill: #000; opacity: 1;">0.5</text><text text-anchor="middle" transform="translate(222.22222222222223,15)" style="font-family: sans-serif; font-size: 10px; fill: #000; opacity: 1;">0.6</text><text text-anchor="middle" transform="translate(266.66666666666663,15)" style="font-family: sans-serif; font-size: 10px; fill: #000; opacity: 1;">0.7</text><text text-anchor="middle" transform="translate(311.11111111111114,15)" style="font-family: sans-serif; font-size: 10px; fill: #000; opacity: 1;">0.8</text><text text-anchor="middle" transform="translate(355.5555555555556,15)" style="font-family: sans-serif; font-size: 10px; fill: #000; opacity: 1;">0.9</text><text text-anchor="end" transform="translate(400,15)" style="font-family: sans-serif; font-size: 10px; fill: #000; opacity: 1;">1.0</text></g><g class="mark-rule role-axis-domain" style="pointer-events: none;"><line transform="translate(0,0)" x2="400" y2="0" style="fill: none; stroke: #888; stroke-width: 1; opacity: 1;"></line></g><g class="mark-text role-axis-title" style="pointer-events: none;"><text text-anchor="middle" transform="translate(200,30)" style="font-family: sans-serif; font-size: 11px; font-weight: bold; fill: #000; opacity: 1;">theta</text></g></g><path class="foreground" d="" style="pointer-events: none; display: none; fill: none;"></path></g></g><g class="mark-group role-axis"><g transform="translate(0.5,0.5)"><path class="background" d="M0,0h0v0h0Z" style="pointer-events: none; fill: none;"></path><g><g class="mark-rule role-axis-tick" style="pointer-events: none;"><line transform="translate(0,300)" x2="-5" y2="0" style="fill: none; stroke: #888; stroke-width: 1; opacity: 1;"></line><line transform="translate(0,270)" x2="-5" y2="0" style="fill: none; stroke: #888; stroke-width: 1; opacity: 1;"></line><line transform="translate(0,240)" x2="-5" y2="0" style="fill: none; stroke: #888; stroke-width: 1; opacity: 1;"></line><line transform="translate(0,210)" x2="-5" y2="0" style="fill: none; stroke: #888; stroke-width: 1; opacity: 1;"></line><line transform="translate(0,180)" x2="-5" y2="0" style="fill: none; stroke: #888; stroke-width: 1; opacity: 1;"></line><line transform="translate(0,150)" x2="-5" y2="0" style="fill: none; stroke: #888; stroke-width: 1; opacity: 1;"></line><line transform="translate(0,120)" x2="-5" y2="0" style="fill: none; stroke: #888; stroke-width: 1; opacity: 1;"></line><line transform="translate(0,90)" x2="-5" y2="0" style="fill: none; stroke: #888; stroke-width: 1; opacity: 1;"></line><line transform="translate(0,60)" x2="-5" y2="0" style="fill: none; stroke: #888; stroke-width: 1; opacity: 1;"></line><line transform="translate(0,30)" x2="-5" y2="0" style="fill: none; stroke: #888; stroke-width: 1; opacity: 1;"></line><line transform="translate(0,0)" x2="-5" y2="0" style="fill: none; stroke: #888; stroke-width: 1; opacity: 1;"></line></g><g class="mark-text role-axis-label" style="pointer-events: none;"><text text-anchor="end" transform="translate(-7,303)" style="font-family: sans-serif; font-size: 10px; fill: #000; opacity: 1;">0.0</text><text text-anchor="end" transform="translate(-7,273)" style="font-family: sans-serif; font-size: 10px; fill: #000; opacity: 1;">0.1</text><text text-anchor="end" transform="translate(-7,243)" style="font-family: sans-serif; font-size: 10px; fill: #000; opacity: 1;">0.2</text><text text-anchor="end" transform="translate(-7,213)" style="font-family: sans-serif; font-size: 10px; fill: #000; opacity: 1;">0.3</text><text text-anchor="end" transform="translate(-7,183)" style="font-family: sans-serif; font-size: 10px; fill: #000; opacity: 1;">0.4</text><text text-anchor="end" transform="translate(-7,153)" style="font-family: sans-serif; font-size: 10px; fill: #000; opacity: 1;">0.5</text><text text-anchor="end" transform="translate(-7,123)" style="font-family: sans-serif; font-size: 10px; fill: #000; opacity: 1;">0.6</text><text text-anchor="end" transform="translate(-7,93.00000000000001)" style="font-family: sans-serif; font-size: 10px; fill: #000; opacity: 1;">0.7</text><text text-anchor="end" transform="translate(-7,62.999999999999986)" style="font-family: sans-serif; font-size: 10px; fill: #000; opacity: 1;">0.8</text><text text-anchor="end" transform="translate(-7,32.99999999999999)" style="font-family: sans-serif; font-size: 10px; fill: #000; opacity: 1;">0.9</text><text text-anchor="end" transform="translate(-7,3)" style="font-family: sans-serif; font-size: 10px; fill: #000; opacity: 1;">1.0</text></g><g class="mark-rule role-axis-domain" style="pointer-events: none;"><line transform="translate(0,300)" x2="0" y2="-300" style="fill: none; stroke: #888; stroke-width: 1; opacity: 1;"></line></g><g class="mark-text role-axis-title" style="pointer-events: none;"><text text-anchor="middle" transform="translate(-26.909090995788574,150) rotate(-90) translate(0,-2)" style="font-family: sans-serif; font-size: 11px; font-weight: bold; fill: #000; opacity: 1;">posteriori</text></g></g><path class="foreground" d="" style="pointer-events: none; display: none; fill: none;"></path></g></g><g class="mark-group role-scope pathgroup"><g transform="translate(0,0)"><path class="background" d="M0,0h400v300h-400Z" style="fill: none;"></path><g><g class="mark-line role-mark marks" clip-path="url(#clip1)"><path d="M0,299.9695320129995L4.0404040404040416,299.9391502582379L8.080808080808083,299.8859675059691L12.121212121212125,299.7976112993146L16.161616161616156,299.65729012156504L20.202020202020197,299.44304081540065L24.24242424242424,299.12706948934414L28.28282828282828,298.6752441809065L32.32323232323232,298.04679519821605L36.36363636363637,297.19427314028337L40.4040404040404,296.0638054450811L44.44444444444445,294.59568044715536L48.484848484848484,292.7252739810327L52.52525252525253,290.3843182642168L56.56565656565656,287.50249689571075L60.606060606060595,284.0093340760435L64.64646464646464,279.83633132285684L68.68686868686868,274.9192916891122L72.72727272727273,269.2007603680038L76.76767676767675,262.632502062005L80.80808080808082,255.17792995535817L84.84848484848484,246.81439878421625L88.88888888888889,237.53527544072114L92.92929292929291,227.35170474291684L96.96969696969695,216.29399529662544L101.010101010101,204.41256050267216L105.05050505050504,191.7783623602905L109.09090909090908,178.48282034121317L113.13131313131312,164.63716375156787L117.17171717171719,150.37122310861915L121.21212121212119,135.83167356024808L125.25252525252526,121.17976068506484L129.29292929292927,106.58855556195165L133.33333333333334,92.23980125265588L137.37373737373736,78.32042631004546L141.41414141414143,65.01881217986555L145.45454545454547,52.52091005077531L149.49494949494954,41.006308554770186L153.53535353535352,30.644356546447515L157.5757575757576,21.590444907582594L161.6161616161616,13.982547941377177L165.65656565656565,7.938118540493367L169.6969696969697,3.5514221270047996L173.73737373737373,0.8913826461529051L177.7777777777778,0L181.81818181818178,0.8913826461529051L185.85858585858585,3.5514221270047996L189.89898989898987,7.9381185404939L193.93939393939394,13.982547941377177L197.97979797979798,21.590444907582594L202.02020202020202,30.644356546447515L206.06060606060606,41.006308554770186L210.10101010101013,52.52091005077531L214.14141414141415,65.01881217986555L218.18181818181822,78.32042631004546L222.22222222222223,92.23980125265588L226.26262626262624,106.58855556195131L230.3030303030303,121.17976068506484L234.3434343434343,135.83167356024808L238.38383838383837,150.37122310861915L242.42424242424238,164.63716375156787L246.46464646464645,178.48282034121317L250.50505050505046,191.7783623602903L254.54545454545453,204.41256050267216L258.58585858585855,216.29399529662544L262.6262626262626,227.35170474291684L266.66666666666663,237.53527544072105L270.70707070707067,246.81439878421608L274.7474747474747,255.17792995535817L278.78787878787875,262.63250206200485L282.82828282828285,269.2007603680038L286.86868686868684,274.91929168911213L290.90909090909093,279.83633132285684L294.9494949494949,284.00933407604344L298.989898989899,287.5024968957107L303.030303030303,290.3843182642168L307.07070707070704,292.7252739810327L311.1111111111111,294.59568044715536L315.1515151515151,296.0638054450811L319.19191919191917,297.19427314028337L323.2323232323232,298.04679519821605L327.27272727272725,298.6752441809065L331.3131313131313,299.12706948934414L335.35353535353534,299.44304081540065L339.3939393939394,299.65729012156504L343.4343434343434,299.7976112993146L347.47474747474746,299.8859675059691L351.5151515151515,299.9391502582379L355.55555555555554,299.9695320129995L359.5959595959596,299.98585532921345L363.63636363636357,299.9940066754968L367.67676767676767,299.997731157898L371.71717171717165,299.99925525048974L375.75757575757575,299.99979711303246L379.79797979797974,299.9999571425256L383.83838383838383,299.9999937355124L387.8787878787878,299.9999994881554L391.91919191919186,299.99999998552306L395.95959595959596,299.9999999999693L400,300" style="fill: none; stroke: rgb(207, 225, 242); stroke-width: 2;"></path></g></g><path class="foreground" d="" style="display: none; fill: none;"></path></g><g transform="translate(0,0)"><path class="background" d="M0,0h400v300h-400Z" style="fill: none;"></path><g><g class="mark-line role-mark marks" clip-path="url(#clip2)"><path d="M0,299.99999986776106L4.0404040404040416,299.99999948088373L8.080808080808083,299.9999981918991L12.121212121212125,299.99999431334646L16.161616161616156,299.9999836240064L20.202020202020197,299.99995633407224L24.24242424242424,299.9998911970439L28.28282828282828,299.9997447326411L32.32323232323232,299.9994325035761L36.36363636363637,299.99879808396963L40.4040404040404,299.99756379022733L44.44444444444445,299.995255487829L48.484848484848484,299.99109197169065L52.52525252525253,299.98382774166174L56.56565656565656,299.9715367211379L60.606060606060595,299.95132391289275L64.64646464646464,299.91895250351337L68.68686868686868,299.8683758721715L72.72727272727273,299.7911676530131L76.76767676767675,299.6758486873807L80.80808080808082,299.50711750205755L84.84848484848484,299.26500081340146L88.88888888888889,298.9239522288848L92.92929292929291,298.4519403097689L96.96969696969695,297.8095807440039L101.010101010101,296.94938060179334L105.05050505050504,295.8151743601103L109.09090909090908,294.34184030620514L113.13131313131312,292.45539073170613L117.17171717171719,290.07352872520994L121.21212121212119,287.1067572419289L125.25252525252526,283.4601116357003L129.29292929292927,279.0355645410836L133.33333333333334,273.7351219513743L137.37373737373736,267.46459219135556L141.41414141414143,260.13796649553444L145.45454545454547,251.68230296658507L149.49494949494954,242.04295728380802L153.53535353535352,231.1889566292748L157.5757575757576,219.1182712208638L161.6161616161616,205.86270406826742L165.65656565656565,191.49209751672694L169.6969696969697,176.1175479146209L173.73737373737373,159.89332985998047L177.7777777777778,143.01726064509867L181.81818181818178,125.72928437400812L185.85858585858585,108.30812319404458L189.89898989898987,91.06592824238109L193.93939393939394,74.34096197860768L197.97979797979798,58.48845197316004L202.02020202020202,43.869868232006546L206.06060606060606,30.84098517390642L210.10101010101013,19.73918833637628L214.14141414141415,10.870567586256662L218.18181818181822,4.497396268945375L222.22222222222223,0.8266234773733783L226.26262626262624,0L230.3030303030303,2.0864149223066897L234.3434343434343,7.076938944077282L238.38383838383837,14.882954343805089L242.42424242424238,25.33760484259L246.46464646464645,38.20062853706955L250.50505050505046,53.166452921257545L254.54545454545453,69.87524385977903L258.58585858585855,87.92642234246595L262.6262626262626,106.89400635495987L266.66666666666663,126.34301203850386L270.70707070707067,145.84606872893963L274.7474747474747,164.9993742441016L278.78787878787875,183.43714445094417L282.82828282828285,200.84379532631473L286.86868686868684,216.96323281858233L290.90909090909093,231.60480791723103L294.9494949494949,244.64570955567063L298.989898989899,256.0298011200101L303.030303030303,265.7631399638193L307.07070707070704,273.9066350710288L311.1111111111111,280.5664781475867L315.1515151515151,285.88311254193326L319.19191919191917,290.01957098285806L323.2323232323232,293.15001094818354L327.27272727272725,295.44920556385625L331.3131313131313,297.08361498543326L335.35353535353534,298.20448136095376L339.3939393939394,298.943178264055L343.4343434343434,299.4088251476648L347.47474747474746,299.6879724397643L351.5151515151515,299.8459954362938L355.55555555555554,299.92972280122666L359.5959595959596,299.97077889751523L363.63636363636357,299.98914005675573L367.67676767676767,299.99648529099335L371.71717171717165,299.9990449901354L375.75757575757575,299.9997934966413L379.79797979797974,299.99996729721573L383.83838383838383,299.9999966996788L387.8787878787878,299.99999983648615L391.91919191919186,299.9999999977857L395.95959595959596,299.99999999999875L400,300" style="fill: none; stroke: rgb(188, 215, 235); stroke-width: 2;"></path></g></g><path class="foreground" d="" style="display: none; fill: none;"></path></g><g transform="translate(0,0)"><path class="background" d="M0,0h400v300h-400Z" style="fill: none;"></path><g><g class="mark-line role-mark marks" clip-path="url(#clip3)"><path d="M0,299.9999999999997L4.0404040404040416,299.9999999999976L8.080808080808083,299.99999999998477L12.121212121212125,299.999999999915L16.161616161616156,299.9999999995838L20.202020202020197,299.99999999817913L24.24242424242424,299.99999999278685L28.28282828282828,299.99999997383765L32.32323232323232,299.99999991229987L36.36363636363637,299.9999997261425L40.4040404040404,299.99999919799967L44.44444444444445,299.99999778454037L48.484848484848484,299.9999941981263L52.52525252525253,299.99998553284956L56.56565656565656,299.9999655199141L60.606060606060595,299.9999211890603L64.64646464646464,299.9998267268013L68.68686868686868,299.999632588325L72.72727272727273,299.9992468572829L76.76767676767675,299.9985043730341L80.80808080808082,299.9971171860128L84.84848484848484,299.99459741783085L88.88888888888889,299.99014061076923L92.92929292929291,299.98245425902593L96.96969696969695,299.969512653917L101.010101010101,299.9482158366933L105.05050505050504,299.9139279055327L109.09090909090908,299.8598689239404L113.13131313131312,299.7763361496662L117.17171717171719,299.6497352835634L121.21212121212119,299.4614119843692L125.25252525252526,299.18628895112806L129.29292929292927,298.7913350936718L133.33333333333334,298.23392085506003L137.37373737373736,297.46014707524785L141.41414141414143,296.4032724480383L145.45454545454547,294.98240412988804L149.49494949494954,293.1016538042798L153.53535353535352,290.64999283294253L157.5757575757576,287.5020595416315L161.6161616161616,283.5201732498195L165.65656565656565,278.5577875298072L169.6969696969697,272.464564372215L173.73737373737373,265.09316810076723L177.7777777777778,256.30776219845984L181.81818181818178,245.994046173863L185.85858585858585,234.07049963358432L189.89898989898987,220.500317492907L193.93939393939394,205.3033385253503L197.97979797979798,188.5671074768642L202.02020202020202,170.4560892801967L206.06060606060606,151.21799354259238L210.10101010101013,131.1861877683996L214.14141414141415,110.77729377786717L218.18181818181822,90.48328168240728L222.22222222222223,70.85769851903206L226.26262626262624,52.49608214459451L230.3030303030303,36.01109126449583L234.3434343434343,22.003394023276236L238.38383838383837,11.029855216998364L242.42424242424238,3.570994326788013L246.46464646464645,0L250.50505050505046,0.5557322607777859L254.54545454545453,5.322083076462302L258.58585858585855,14.215777128880047L262.6262626262626,26.98417788242634L266.66666666666663,43.21394478525049L270.70707070707067,62.350517271273176L274.7474747474747,83.72745541500602L278.78787878787875,106.60373872476237L282.82828282828285,130.20631549681522L286.86868686868684,153.77460440721995L290.90909090909093,176.60336083816344L294.9494949494949,198.08038766726466L298.989898989899,217.71600985218384L303.030303030303,235.1620147546408L307.07070707070704,250.21881027783795L311.1111111111111,262.8307547620485L315.1515151515151,273.07082270711174L319.19191919191917,281.1168358895721L323.2323232323232,287.2222699615752L327.27272727272725,291.685036677026L331.3131313131313,294.8175898687138L335.35353535353534,296.92122322021885L339.3939393939394,298.26660081567553L343.4343434343434,299.0815249196388L347.47474747474746,299.54587122128413L351.5151515151515,299.7926852612005L355.55555555555554,299.91378023001585L359.5959595959596,299.9678913469118L363.63636363636357,299.98953331738267L367.67676767676767,299.9971040156349L371.71717171717165,299.99934863079005L375.75757575757575,299.99988820514284L379.79797979797974,299.99998672713673L383.83838383838383,299.99999907519833L387.8787878787878,299.99999997221613L391.91919191919186,299.99999999981986L395.95959595959596,299.99999999999994L400,300" style="fill: none; stroke: rgb(162, 203, 227); stroke-width: 2;"></path></g></g><path class="foreground" d="" style="display: none; fill: none;"></path></g><g transform="translate(0,0)"><path class="background" d="M0,0h400v300h-400Z" style="fill: none;"></path><g><g class="mark-line role-mark marks" clip-path="url(#clip4)"><path d="M0,300L4.0404040404040416,300L8.080808080808083,300L12.121212121212125,300L16.161616161616156,299.9999999999999L20.202020202020197,299.99999999999926L24.24242424242424,299.99999999999574L28.28282828282828,299.99999999997766L32.32323232323232,299.99999999989427L36.36363636363637,299.9999999995425L40.4040404040404,299.99999999817686L44.44444444444445,299.9999999932577L48.484848484848484,299.99999997671046L52.52525252525253,299.9999999244391L56.56565656565656,299.99999976860965L60.606060606060595,299.9999993282961L64.64646464646464,299.9999981445379L68.68686868686868,299.99999510626117L72.72727272727273,299.9999876388641L76.76767676767675,299.99997001651644L80.80808080808082,299.99992998843123L84.84848484848484,299.99984228423926L88.88888888888889,299.99965655292294L92.92929292929291,299.9992757225437L96.96969696969695,299.99851843817453L101.010101010101,299.99705591946406L105.05050505050504,299.9943090721731L109.09090909090908,299.9892858633675L113.13131313131312,299.98033186637826L117.17171717171719,299.9647588145787L121.21212121212119,299.9383076927845L125.25252525252526,299.8943955930938L129.29292929292927,299.8230911466648L133.33333333333334,299.70976434617717L137.37373737373736,299.533366092824L141.41414141414143,299.26431425107006L145.45454545454547,298.8619996621478L149.49494949494954,298.2719799637373L153.53535353535352,297.4230020867432L157.5757575757576,296.2240842923266L161.6161616161616,294.5619904342247L165.65656565656565,292.2995334421817L169.6969696969697,289.2752379871825L173.73737373737373,285.30495595096056L177.7777777777778,280.18604184300534L181.81818181818178,273.70463720243856L185.85858585858585,265.64646436246255L189.89898989898987,255.81127834316203L193.93939393939394,244.03076951118075L197.97979797979798,230.18926227366745L202.02020202020202,214.2460474453035L206.06060606060606,196.25766762408267L210.10101010101013,176.39801219115802L214.14141414141415,154.97374906943298L218.18181818181822,132.4325044535208L222.22222222222223,109.36137063044406L226.26262626262624,86.47382446139754L230.3030303030303,64.58398779620497L234.3434343434343,44.56832169738061L238.38383838383837,27.316231397843318L242.42424242424238,13.672529086835617L246.46464646464645,4.376075928233658L250.50505050505046,0L254.54545454545453,0.8994652699229166L258.58585858585855,7.172888244866948L262.6262626262626,18.641673958849182L266.66666666666663,34.851979390783804L270.70707070707067,55.09983089538165L274.7474747474747,78.47835466640332L278.78787878787875,103.94324732955003L282.82828282828285,130.39028816409686L286.86868686868684,156.73703883202103L290.90909090909093,182.00018446986616L294.9494949494949,205.36040626406867L298.989898989899,226.2082334380519L303.030303030303,244.16680855671572L307.07070707070704,259.09055328470475L311.1111111111111,271.0418677115462L315.1515151515151,280.2507287762436L319.19191919191917,287.06392935944643L323.2323232323232,291.89142915876636L327.27272727272725,295.15679666679864L331.3131313131313,297.25716778569154L335.35353535353534,298.53589176462015L339.3939393939394,299.2685617630764L343.4343434343434,299.66092936944545L347.47474747474746,299.8556717721168L351.5151515151515,299.94432034896647L355.55555555555554,299.9808498872438L359.5959595959596,299.99425139926876L363.63636363636357,299.9985353756241L367.67676767676767,299.9996950648883L371.71717171717165,299.9999508048854L375.75757575757575,299.9999943108287L379.79797979797974,299.9999995820351L383.83838383838383,299.99999998406656L387.8787878787878,299.99999999978434L391.91919191919186,299.99999999999955L395.95959595959596,300L400,300" style="fill: none; stroke: rgb(134, 188, 220); stroke-width: 2;"></path></g></g><path class="foreground" d="" style="display: none; fill: none;"></path></g><g transform="translate(0,0)"><path class="background" d="M0,0h400v300h-400Z" style="fill: none;"></path><g><g class="mark-line role-mark marks" clip-path="url(#clip5)"><path d="M0,300L4.0404040404040416,300L8.080808080808083,300L12.121212121212125,300L16.161616161616156,300L20.202020202020197,300L24.24242424242424,300L28.28282828282828,300L32.32323232323232,300L36.36363636363637,299.99999999999994L40.4040404040404,299.99999999999955L44.44444444444445,299.9999999999976L48.484848484848484,299.9999999999886L52.52525252525253,299.999999999949L56.56565656565656,299.9999999997886L60.606060606060595,299.9999999991798L64.64646464646464,299.99999999700833L68.68686868686868,299.9999999896978L72.72727272727273,299.9999999663793L76.76767676767675,299.9999998956657L80.80808080808082,299.999999691175L84.84848484848484,299.9999991257029L88.88888888888889,299.99999762672695L92.92929292929291,299.99999380903427L96.96969696969695,299.9999844481674L101.010101010101,299.9999623098347L105.05050505050504,299.99991172504565L109.09090909090908,299.9997998821367L113.13131313131312,299.99956026441197L117.17171717171719,299.9990621758111L121.21212121212119,299.9980564533968L125.25252525252526,299.9960817774353L129.29292929292927,299.9923079565543L133.33333333333334,299.9852817913297L137.37373737373736,299.97252750978873L141.41414141414143,299.94993780866923L145.45454545454547,299.9108746467248L149.49494949494954,299.8448838693756L153.53535353535352,299.7359189196217L157.5757575757576,299.5599725830514L161.6161616161616,299.28203989863823L165.65656565656565,298.85238904257153L169.6969696969697,298.20220883066105L173.73737373737373,297.23883769545586L177.7777777777778,295.84096047752314L181.81818181818178,293.8543784346495L185.85858585858585,291.0891950703332L189.89898989898987,287.31948229767727L193.93939393939394,282.2866504817184L197.97979797979798,275.70778310384367L202.02020202020202,267.29004868927336L206.06060606060606,256.7519122616701L210.10101010101013,243.85120017264984L214.14141414141415,228.41912772332793L218.18181818181822,210.39823380330463L222.22222222222223,189.88089951998458L226.26262626262624,167.14394110088756L230.3030303030303,142.67389449789093L234.3434343434343,117.1773047646383L238.38383838383837,91.57082899039057L242.42424242424238,66.94741096801829L246.46464646464645,44.51720832008742L250.50505050505046,25.525188969674794L254.54545454545453,11.151005698400295L258.58585858585855,2.4003674122751395L262.6262626262626,0L266.66666666666663,4.309765686780665L270.70707070707067,15.265052693462112L274.7474747474747,32.359891442268896L278.78787878787875,54.676517356545084L282.82828282828285,80.96083558650287L286.86868686868684,109.73639719158083L290.90909090909093,139.44327289139497L294.9494949494949,168.58384309020354L298.989898989899,195.8560030699259L303.030303030303,220.2561026471721L307.07070707070704,241.13892225089162L311.1111111111111,258.22925727346984L315.1515151515151,271.58781539857574L319.19191919191917,281.54145960735497L323.2323232323232,288.5928391175464L327.27272727272725,293.32616842377L331.3131313131313,296.3241685967531L335.35353535353534,298.10665006743136L339.3939393939394,299.09521804320264L343.4343434343434,299.60270690181113L347.47474747474746,299.8415811818878L351.5151515151515,299.9434721440623L355.55555555555554,299.9822812462096L359.5959595959596,299.9952361612062L363.63636363636357,299.99893542275765L367.67676767676767,299.9998105111356L371.71717171717165,299.99997469474226L375.75757575757575,299.99999767719294L379.79797979797974,299.9999998720651L383.83838383838383,299.99999999663277L387.8787878787878,299.9999999999724L391.91919191919186,299.99999999999994L395.95959595959596,300L400,300" style="fill: none; stroke: rgb(105, 171, 211); stroke-width: 2;"></path></g></g><path class="foreground" d="" style="display: none; fill: none;"></path></g><g transform="translate(0,0)"><path class="background" d="M0,0h400v300h-400Z" style="fill: none;"></path><g><g class="mark-line role-mark marks" clip-path="url(#clip6)"><path d="M0,300L4.0404040404040416,300L8.080808080808083,300L12.121212121212125,300L16.161616161616156,300L20.202020202020197,300L24.24242424242424,300L28.28282828282828,300L32.32323232323232,300L36.36363636363637,300L40.4040404040404,300L44.44444444444445,300L48.484848484848484,300L52.52525252525253,300L56.56565656565656,299.99999999999994L60.606060606060595,299.9999999999999L64.64646464646464,299.99999999999943L68.68686868686868,299.9999999999973L72.72727272727273,299.99999999998806L76.76767676767675,299.99999999995043L80.80808080808082,299.99999999980537L84.84848484848484,299.9999999992761L88.88888888888889,299.99999999744125L92.92929292929291,299.9999999913812L96.96969696969695,299.9999999722655L101.010101010101,299.99999991454314L105.05050505050504,299.9999997473377L109.09090909090908,299.99999928181677L113.13131313131312,299.9999980339436L117.17171717171719,299.9999948081285L121.21212121212119,299.9999867546542L125.25252525252526,299.9999673106587L129.29292929292927,299.9999218557237L133.33333333333334,299.9998188503406L137.37373737373736,299.9995923489645L141.41414141414143,299.99910859542905L145.45454545454547,299.99810422375475L149.49494949494954,299.9960755000263L153.53535353535352,299.9920859938169L157.5757575757576,299.9844430101489L161.6161616161616,299.9701703300161L165.65656565656565,299.9441764675819L169.6969696969697,299.89798560299346L173.73737373737373,299.81786712499274L177.7777777777778,299.68217761362047L181.81818181818178,299.45772902613817L185.85858585858585,299.0950365293888L189.89898989898987,298.5224002386721L193.93939393939394,297.6389590750312L197.97979797979798,296.3071390953272L202.02020202020202,294.3453069587513L206.06060606060606,291.52191250588197L210.10101010101013,287.5529102043825L214.14141414141415,282.1046941315167L218.18181818181822,274.80503056292474L222.22222222222223,265.26436093433443L226.26262626262624,253.1092059679625L230.3030303030303,238.02809609162958L234.3434343434343,219.82844218980466L238.38383838383837,198.5001513713125L242.42424242424238,174.27888635313394L246.46464646464645,147.69917373350938L250.50505050505046,119.62576515421986L254.54545454545453,91.2514920365841L258.58585858585855,64.05197443076666L262.6262626262626,39.692282435411194L266.66666666666663,19.887822392849642L270.70707070707067,6.230490215909579L274.7474747474747,0L278.78787878787875,1.9872802988116223L282.82828282828285,12.359865093188215L286.86868686868684,30.59666915676793L290.90909090909093,55.51081992348822L294.9494949494949,85.36515598419265L298.989898989899,118.06798759437524L303.030303030303,151.42035988059698L307.07070707070704,183.37440799654942L311.1111111111111,212.25882023507785L315.1515151515151,236.93352983459604L319.19191919191917,256.8506280551677L323.2323232323232,272.0186772756504L327.27272727272725,282.8879226158638L331.3131313131313,290.1889478548795L335.35353535353534,294.76319870349573L339.3939393939394,297.41945058471634L343.4343434343434,298.83789680431175L347.47474747474746,299.52765396783843L351.5151515151515,299.82937487502954L355.55555555555554,299.946283568735L359.5959595959596,299.98562785471864L363.63636363636357,299.9968386207871L367.67676767676767,299.9994534375797L371.71717171717165,299.9999302718136L375.75757575757575,299.99999401548473L379.79797979797974,299.99999970061685L383.83838383838383,299.99999999313485L387.8787878787878,299.999999999954L391.91919191919186,299.99999999999994L395.95959595959596,300L400,300" style="fill: none; stroke: rgb(79, 154, 202); stroke-width: 2;"></path></g></g><path class="foreground" d="" style="display: none; fill: none;"></path></g><g transform="translate(0,0)"><path class="background" d="M0,0h400v300h-400Z" style="fill: none;"></path><g><g class="mark-line role-mark marks" clip-path="url(#clip7)"><path d="M0,300L4.0404040404040416,300L8.080808080808083,300L12.121212121212125,300L16.161616161616156,300L20.202020202020197,300L24.24242424242424,300L28.28282828282828,300L32.32323232323232,300L36.36363636363637,300L40.4040404040404,300L44.44444444444445,300L48.484848484848484,300L52.52525252525253,300L56.56565656565656,300L60.606060606060595,300L64.64646464646464,300L68.68686868686868,300L72.72727272727273,300L76.76767676767675,299.99999999999994L80.80808080808082,299.9999999999999L84.84848484848484,299.99999999999955L88.88888888888889,299.99999999999784L92.92929292929291,299.99999999999056L96.96969696969695,299.9999999999611L101.010101010101,299.9999999998476L105.05050505050504,299.9999999994313L109.09090909090908,299.99999999797296L113.13131313131312,299.99999999308693L117.17171717171719,299.99999997739536L121.21212121212119,299.9999999290091L125.25252525252526,299.9999997855163L129.29292929292927,299.9999993756564L133.33333333333334,299.9999982465591L137.37373737373736,299.9999952428141L141.41414141414143,299.9999875172318L145.45454545454547,299.99996828651723L149.49494949494954,299.9999219122791L153.53535353535352,299.999813479517L157.5757575757576,299.99956744389215L161.6161616161616,299.9990253074734L165.65656565656565,299.9978644438652L169.6969696969697,299.9954474498362L173.73737373737373,299.9905516537685L177.7777777777778,299.9808994017426L181.81818181818178,299.9623696764511L185.85858585858585,299.9277203217515L189.89898989898987,299.86459095069216L193.93939393939394,299.7524987556121L197.97979797979798,299.55850092440807L202.02020202020202,299.231207353217L206.06060606060606,298.6929267458821L210.10101010101013,297.82996760777087L214.14141414141415,296.48154246084755L218.18181818181822,294.42837151040277L222.22222222222223,291.38294270136345L226.26262626262624,286.9843800817474L230.3030303030303,280.80182551308417L234.3434343434343,272.3508625950888L238.38383838383837,261.1274225963342L242.42424242424238,246.66238946855526L246.46464646464645,228.59741827649322L250.50505050505046,206.77818420847606L254.54545454545453,181.3556805996605L258.58585858585855,152.88012292994105L262.6262626262626,122.36690502890377L266.66666666666663,91.31172598396562L270.70707070707067,61.63432745611722L274.7474747474747,35.538558295835934L278.78787878787875,15.290781301850231L282.82828282828285,2.9372189246340774L286.86868686868684,0L290.90909090909093,7.206230709639971L294.9494949494949,24.30890354981461L298.989898989899,50.04889877580448L303.030303030303,82.28307289541978L307.07070707070704,118.26835328592121L311.1111111111111,155.05414821249948L315.1515151515151,189.90604597225646L319.19191919191917,220.67270409571432L323.2323232323232,246.02036255320203L327.27272727272725,265.49347085908266L331.3131313131313,279.4057190422957L335.35353535353534,288.60872460371405L339.3939393939394,294.2116940617816L343.4343434343434,297.3266894057968L347.47474747474746,298.89239521522666L351.5151515151515,299.59496318368326L355.55555555555554,299.8719285933811L359.5959595959596,299.96589977931404L363.63636363636357,299.9926167587769L367.67676767676767,299.9987601564369L371.71717171717165,299.9998488956306L375.75757575757575,299.9999878740471L379.79797979797974,299.999999449019L383.83838383838383,299.9999999889923L387.8787878787878,299.9999999999398L391.91919191919186,299.99999999999994L395.95959595959596,300L400,300" style="fill: none; stroke: rgb(56, 135, 192); stroke-width: 2;"></path></g></g><path class="foreground" d="" style="display: none; fill: none;"></path></g><g transform="translate(0,0)"><path class="background" d="M0,0h400v300h-400Z" style="fill: none;"></path><g><g class="mark-line role-mark marks" clip-path="url(#clip8)"><path d="M0,300L4.0404040404040416,300L8.080808080808083,300L12.121212121212125,300L16.161616161616156,300L20.202020202020197,300L24.24242424242424,300L28.28282828282828,300L32.32323232323232,300L36.36363636363637,300L40.4040404040404,300L44.44444444444445,300L48.484848484848484,300L52.52525252525253,300L56.56565656565656,300L60.606060606060595,300L64.64646464646464,300L68.68686868686868,300L72.72727272727273,300L76.76767676767675,300L80.80808080808082,300L84.84848484848484,300L88.88888888888889,299.99999999999994L92.92929292929291,299.9999999999996L96.96969696969695,299.9999999999981L101.010101010101,299.99999999999125L105.05050505050504,299.999999999962L109.09090909090908,299.99999999984334L113.13131313131312,299.9999999993854L117.17171717171719,299.9999999977007L121.21212121212119,299.9999999917791L125.25252525252526,299.9999999718583L129.29292929292927,299.99999990761296L133.33333333333334,299.99999970867646L137.37373737373736,299.99999911638787L141.41414141414143,299.99999741869374L145.45454545454547,299.9999927283247L149.49494949494954,299.99998022436836L153.53535353535352,299.9999480276346L157.5757575757576,299.999867879528L161.6161616161616,299.99967483874576L165.65656565656565,299.99922464201444L169.6969696969697,299.9982073550565L173.73737373737373,299.99597875915134L177.7777777777778,299.99124295157225L181.81818181818178,299.98147665962074L185.85858585858585,299.9619239669197L189.89898989898987,299.9239082519687L193.93939393939394,299.85211099639173L197.97979797979798,299.72037084482145L202.02020202020202,299.48549429787994L206.06060606060606,299.0785975706782L210.10101010101013,298.3936968059365L214.14141414141415,297.27372592614404L218.18181818181822,295.4949763571022L222.22222222222223,292.75216253924685L226.26262626262624,288.64786022462255L230.3030303030303,282.6917132757108L234.3434343434343,274.31611726394055L238.38383838383837,262.91541038408036L242.42424242424238,247.91415619065725L246.46464646464645,228.86619072547768L250.50505050505046,205.5794257732778L254.54545454545453,178.25240915814592L258.58585858585855,147.59885972020098L262.6262626262626,114.92844833842034L266.66666666666663,82.14936542080002L270.70707070707067,51.663959628728406L274.7474747474747,26.14481499994401L278.78787878787875,8.204164772743905L282.82828282828285,0L286.86868686868684,2.849680369761709L290.90909090909093,16.936640954740156L294.9494949494949,41.18963020899141L298.989898989899,73.38354223655256L303.030303030303,110.46083365242654L307.07070707070704,149.01537503949453L311.1111111111111,185.83409475974986L315.1515151515151,218.37272721083696L319.19191919191917,245.05931248748922L323.2323232323232,265.36905052699933L327.27272727272725,279.6802916234779L331.3131313131313,288.9806006200411L335.35353535353534,294.52339824819114L339.3939393939394,297.5306970344178L343.4343434343434,299.0022630775509L347.47474747474746,299.6441221924989L351.5151515151515,299.89002229439285L355.55555555555554,299.97124188054056L359.5959595959596,299.9938277845698L363.63636363636357,299.9989555008548L367.67676767676767,299.9998680158009L371.71717171717165,299.9999884623967L375.75757575757575,299.99999937614035L379.79797979797974,299.999999982459L383.83838383838383,299.99999999980827L387.8787878787878,299.99999999999955L391.91919191919186,300L395.95959595959596,300L400,300" style="fill: none; stroke: rgb(36, 115, 180); stroke-width: 2;"></path></g></g><path class="foreground" d="" style="display: none; fill: none;"></path></g><g transform="translate(0,0)"><path class="background" d="M0,0h400v300h-400Z" style="fill: none;"></path><g><g class="mark-line role-mark marks" clip-path="url(#clip9)"><path d="M0,300L4.0404040404040416,300L8.080808080808083,300L12.121212121212125,300L16.161616161616156,300L20.202020202020197,300L24.24242424242424,300L28.28282828282828,300L32.32323232323232,300L36.36363636363637,300L40.4040404040404,300L44.44444444444445,300L48.484848484848484,300L52.52525252525253,300L56.56565656565656,300L60.606060606060595,300L64.64646464646464,300L68.68686868686868,300L72.72727272727273,300L76.76767676767675,300L80.80808080808082,300L84.84848484848484,300L88.88888888888889,300L92.92929292929291,300L96.96969696969695,300L101.010101010101,300L105.05050505050504,300L109.09090909090908,299.99999999999994L113.13131313131312,299.99999999999966L117.17171717171719,299.9999999999984L121.21212121212119,299.99999999999267L125.25252525252526,299.99999999996817L129.29292929292927,299.99999999986767L133.33333333333334,299.9999999994749L137.37373737373736,299.999999998006L141.41414141414143,299.99999999274286L145.45454545454547,299.9999999746511L149.49494949494954,299.99999991490785L153.53535353535352,299.99999972515997L157.5757575757576,299.9999991449L161.6161616161616,299.99999743464616L165.65656565656565,299.99999257182L169.6969696969697,299.99997922219353L173.73737373737373,299.9999438118925L177.7777777777778,299.99985299525025L181.81818181818178,299.99962765433827L185.85858585858585,299.99908641918057L189.89898989898987,299.9978274778271L193.93939393939394,299.99499040380783L197.97979797979798,299.9887942307487L202.02020202020202,299.9756759849634L206.06060606060606,299.94874774612197L210.10101010101013,299.89514727100794L214.14141414141415,299.79168719147805L218.18181818181822,299.59804506803846L222.22222222222223,299.2466539394449L226.26262626262624,298.62857368762855L230.3030303030303,297.5751218016607L234.3434343434343,295.8361190255959L238.38383838383837,293.05742470792075L242.42424242424238,288.76301212394844L246.46464646464645,282.3498763887575L250.50505050505046,273.1068323440912L254.54545454545453,260.2694758827396L258.58585858585855,243.1215737967262L262.6262626262626,221.1462575994287L266.66666666666663,194.21774960905407L270.70707070707067,162.80682721290242L274.7474747474747,128.1543268187315L278.78787878787875,92.35299105055626L282.82828282828285,58.27689495563415L286.86868686868684,29.316710027490778L290.90909090909093,8.9207142281984L294.9494949494949,0L298.989898989899,4.316272278830247L303.030303030303,22.009343356604084L307.07070707070704,51.41668713723878L311.1111111111111,89.27800615258113L315.1515151515151,131.31282157127464L319.19191919191917,173.04029490144242L323.2323232323232,210.62315032132537L327.27272727272725,241.50180510866244L331.3131313131313,264.6544999679967L335.35353535353534,280.4504656315165L339.3939393939394,290.20155516963246L343.4343434343434,295.6038237537456L347.47474747474746,298.2607381548653L351.5151515151515,299.4044583596852L355.55555555555554,299.8276310047097L359.5959595959596,299.95909392627465L363.63636363636357,299.99235339691745L367.67676767676767,299.9989337221694L371.71717171717165,299.9998972375216L375.75757575757575,299.99999387978045L379.79797979797974,299.9999998106369L383.83838383838383,299.99999999772433L387.8787878787878,299.99999999999386L391.91919191919186,300L395.95959595959596,300L400,300" style="fill: none; stroke: rgb(20, 94, 166); stroke-width: 2;"></path></g></g><path class="foreground" d="" style="display: none; fill: none;"></path></g><g transform="translate(0,0)"><path class="background" d="M0,0h400v300h-400Z" style="fill: none;"></path><g><g class="mark-line role-mark marks" clip-path="url(#clip10)"><path d="M0,300L4.0404040404040416,300L8.080808080808083,300L12.121212121212125,300L16.161616161616156,300L20.202020202020197,300L24.24242424242424,300L28.28282828282828,300L32.32323232323232,300L36.36363636363637,300L40.4040404040404,300L44.44444444444445,300L48.484848484848484,300L52.52525252525253,300L56.56565656565656,300L60.606060606060595,300L64.64646464646464,300L68.68686868686868,300L72.72727272727273,300L76.76767676767675,300L80.80808080808082,300L84.84848484848484,300L88.88888888888889,300L92.92929292929291,300L96.96969696969695,300L101.010101010101,300L105.05050505050504,300L109.09090909090908,300L113.13131313131312,300L117.17171717171719,299.99999999999994L121.21212121212119,299.99999999999983L125.25252525252526,299.99999999999915L129.29292929292927,299.99999999999585L133.33333333333334,299.99999999998084L137.37373737373736,299.9999999999156L141.41414141414143,299.99999999964496L145.45454545454547,299.99999999857283L149.49494949494954,299.9999999945088L153.53535353535352,299.99999997975254L157.5757575757576,299.9999999283623L161.6161616161616,299.9999997565134L165.65656565656565,299.9999992041567L169.6969696969697,299.99999749608963L173.73737373737373,299.99999241015433L177.7777777777778,299.9999778169801L181.81818181818178,299.9999374394669L185.85858585858585,299.99982964300744L189.89898989898987,299.99955181505896L193.93939393939394,299.9988602185819L197.97979797979798,299.99719679993945L202.02020202020202,299.99332995889625L206.06060606060606,299.9846399946707L210.10101010101013,299.965757752919L214.14141414141415,299.926084786388L218.18181818181822,299.8454846430963L222.22222222222223,299.68716613108666L226.26262626262624,299.3865626468842L230.3030303030303,298.8350099444694L234.3434343434343,297.85749841038154L238.38383838383837,296.1850635479717L242.42424242424238,293.4248097571089L246.46464646464645,289.03427569531414L250.50505050505046,282.31151265135514L254.54545454545453,272.41674842314023L258.58585858585855,258.4437668786746L262.6262626262626,239.55626553759058L266.66666666666663,215.1935488511625L270.70707070707067,185.32950560680007L274.7474747474747,150.74079414420856L278.78787878787875,113.21134627104307L282.82828282828285,75.58250103644468L286.86868686868684,41.56535407753428L290.90909090909093,15.274755329907098L294.9494949494949,0.5221917589660952L298.989898989899,0L303.030303030303,14.567974339193434L307.07070707070704,42.8751381169745L311.1111111111111,81.48612800669581L315.1515151515151,125.53708542892018L319.19191919191917,169.76480078421352L323.2323232323232,209.60887531505244L327.27272727272725,242.05012534898154L331.3131313131313,265.94679694342426L335.35353535353534,281.8255356958647L339.3939393939394,291.28653443972263L343.4343434343434,296.2969170721072L347.47474747474746,298.6275771019024L351.5151515151515,299.56534404174676L355.55555555555554,299.88534619182974L359.5959595959596,299.97563029883617L363.63636363636357,299.9960043543748L367.67676767676767,299.99952366320014L371.71717171717165,299.9999619993649L375.75757575757575,299.9999982036183L379.79797979797974,299.9999999583311L383.83838383838383,299.9999999996543L387.8787878787878,299.99999999999943L391.91919191919186,300L395.95959595959596,300L400,300" style="fill: none; stroke: rgb(10, 74, 144); stroke-width: 2;"></path></g></g><path class="foreground" d="" style="display: none; fill: none;"></path></g></g><g class="mark-group role-legend"><g transform="translate(418,0)"><path class="background" d="M0,0h83v216h-83Z" style="pointer-events: none; fill: none;"></path><g><g class="mark-group role-legend-entry"><g transform="translate(0,16)"><path class="background" d="M0,0h0v0h0Z" style="pointer-events: none; fill: none;"></path><g><g class="mark-rect role-legend-gradient" style="pointer-events: none;"><path d="M0,0h16v200h-16Z" style="fill: url(#gradient_0); stroke: #ddd; stroke-width: 0; opacity: 1;"></path></g><g class="mark-text role-legend-label" style="pointer-events: none;"><text text-anchor="start" transform="translate(18,198)" style="font-family: sans-serif; font-size: 10px; fill: #000; opacity: 1;">0</text><text text-anchor="start" transform="translate(18,158.55555555555557)" style="font-family: sans-serif; font-size: 10px; fill: #000; opacity: 1;">20</text><text text-anchor="start" transform="translate(18,114.11111111111111)" style="font-family: sans-serif; font-size: 10px; fill: #000; opacity: 1;">40</text><text text-anchor="start" transform="translate(18,69.66666666666667)" style="font-family: sans-serif; font-size: 10px; fill: #000; opacity: 1;">60</text><text text-anchor="start" transform="translate(18,25.222222222222232)" style="font-family: sans-serif; font-size: 10px; fill: #000; opacity: 1;">80</text></g></g><path class="foreground" d="" style="pointer-events: none; display: none; fill: none;"></path></g></g><g class="mark-text role-legend-title" style="pointer-events: none;"><text text-anchor="start" transform="translate(0,9)" style="font-family: sans-serif; font-size: 11px; font-weight: bold; fill: #000; opacity: 1;">Observations</text></g></g><path class="foreground" d="" style="pointer-events: none; display: none; fill: none;"></path></g></g></g><path class="foreground" d="" style="display: none; fill: none;"></path></g></g></g></svg>