<?xml version="1.0" encoding="utf-8"?>
<!-- Generator: Adobe Illustrator 17.0.0, SVG Export Plug-In . SVG Version: 6.00 Build 0)  -->
<!DOCTYPE svg PUBLIC "-//W3C//DTD SVG 1.1//EN" "http://www.w3.org/Graphics/SVG/1.1/DTD/svg11.dtd">
<svg version="1.1" id="Layer_1" xmlns="http://www.w3.org/2000/svg" xmlns:xlink="http://www.w3.org/1999/xlink" x="0px" y="0px"
	 width="500px" height="500px" viewBox="0 0 500 500" enable-background="new 0 0 500 500" xml:space="preserve">
<g>
	<path fill="#2EB2C2" d="M-501.503,135.087c0,11.36-9.209,20.574-20.574,20.574c-11.365,0-20.574-9.214-20.574-20.574
		s20.574-41.149,20.574-41.149S-501.503,123.727-501.503,135.087z"/>
	<path fill="#2EB2C2" d="M-347.204,42.505c0,11.366-9.214,20.574-20.574,20.574c-11.36,0-20.574-9.214-20.574-20.574
		s20.574-41.149,20.574-41.149S-347.204,31.145-347.204,42.505z"/>
	<path fill="#2EB2C2" d="M-192.899,135.087c0,11.36-9.214,20.574-20.574,20.574c-11.36,0-20.574-9.214-20.574-20.574
		s20.574-41.149,20.574-41.149S-192.899,123.727-192.899,135.087z"/>
	<g>
		<path fill="#24929F" d="M-410.154,125.887c-0.249-0.028-0.471-0.028-0.72-0.055c0.111-0.138,0.222-0.249,0.332-0.387
			C-410.403,125.611-410.265,125.721-410.154,125.887z"/>
		<path fill="#24929F" d="M-324.695,125.804c-0.221,0.028-0.443,0.028-0.664,0.055c0.111-0.166,0.249-0.277,0.36-0.415
			C-324.889,125.555-324.778,125.666-324.695,125.804z"/>
		<path fill="#24929F" d="M-331.616,102.606c0,0,0,0,0-0.028c-4.955-15.226-19.129-26.355-35.988-26.355
			s-30.978,11.073-35.988,26.271c-2.436,0.775-4.762,1.744-6.949,2.962c-3.156,1.744-6.035,3.876-8.582,6.423
			c-0.526,0.498-1.024,0.997-1.495,1.55c-0.969,1.052-1.855,2.159-2.685,3.35c5.204,1.301,9.689,4.429,12.762,8.665
			c1.523-2.104,3.35-3.959,5.481-5.454c2.187-1.495,4.651-2.547,7.281-3.211v-0.028c1.772-0.443,3.571-0.748,5.481-0.748
			c0.803,0,1.55,0.166,2.298,0.222c-0.055-0.664-0.194-1.301-0.194-1.993c0-4.845,1.578-9.329,4.18-13.011h0.028
			c4.097-5.758,10.769-9.551,18.382-9.551c7.585,0,14.257,3.765,18.354,9.523c2.63,3.682,4.208,8.167,4.208,13.039
			c0,0.692-0.138,1.301-0.194,1.965c0.664-0.055,1.301-0.194,1.965-0.194c1.91,0,3.737,0.305,5.537,0.775
			c2.104-3.018,4.706-5.62,7.585-7.89c1.633-1.273,3.35-2.408,5.149-3.433C-327.104,104.322-329.291,103.353-331.616,102.606z"/>
		<path fill="#24929F" d="M-268.72,138.483v0.111c0,5.73-1.301,11.156-3.626,16.029c-2.242,4.651-5.398,8.803-9.218,12.208
			c0,0,0,0,0,0.028c-1.024,10.769-6.506,20.237-14.589,26.493c-6.367,4.955-14.34,7.89-23.06,7.89
			c-4.678,0-9.108-0.886-13.205-2.436c-3.488-1.356-6.755-3.211-9.689-5.454c-0.526-0.388-0.997-0.775-1.495-1.19
			c-0.997-0.83-1.91-1.716-2.824-2.63c-2.657-2.768-4.928-5.952-6.672-9.412c1.44-1.246,2.768-2.602,3.848-4.125
			c1.965,0.304,3.931,0.581,5.98,0.581c1.882,0,3.682-0.277,5.481-0.526c1.08,1.55,2.408,2.907,3.848,4.152
			c3.959,3.46,9.08,5.62,14.728,5.62c3.848,0,7.502-0.969,10.686-2.713c3.184-1.716,5.897-4.18,7.945-7.142
			c2.492-3.627,3.959-8.001,3.959-12.707c0-1.495-0.166-2.934-0.443-4.346c5.398-2.602,9.551-7.198,11.544-12.873
			c0.831-2.353,1.357-4.817,1.357-7.447c0-12.458-10.104-22.59-22.562-22.59c-1.91,0-3.737,0.305-5.509,0.748
			c-5.204,1.329-9.689,4.429-12.734,8.693c-1.467-2.021-3.211-3.765-5.232-5.204c0.304-1.966,0.609-3.959,0.609-5.98
			c0-1.855-0.304-3.599-0.554-5.371c1.633-1.273,3.35-2.408,5.149-3.433c5.454-3.017,11.599-4.872,18.271-4.872
			C-285.8,100.585-268.775,117.582-268.72,138.483z"/>
		<path fill="#24929F" d="M-329.595,114.26c0,2.021-0.304,4.014-0.609,5.98c-2.242-1.606-4.789-2.768-7.53-3.46
			c2.104-3.018,4.706-5.62,7.585-7.89C-329.9,110.661-329.595,112.405-329.595,114.26z"/>
		<path fill="#24929F" d="M-410.541,105.457c-3.156,1.744-6.035,3.876-8.582,6.423c-0.498,0.471-1.024,0.997-1.495,1.55
			c-0.969,1.052-1.855,2.159-2.685,3.35c-1.772-0.471-3.599-0.775-5.509-0.775c-12.458,0-22.59,10.132-22.59,22.59
			c0,2.491,0.498,4.872,1.273,7.115c-2.796,5.287-4.512,11.184-4.512,17.551c0,0.886,0.138,1.716,0.249,2.602
			c0.028,0.249,0.055,0.471,0.083,0.72c-7.641-6.949-12.513-16.859-12.513-27.988c0-20.956,17.025-38.009,38.009-38.009
			C-422.168,100.585-415.995,102.44-410.541,105.457z"/>
		<path fill="#24929F" d="M-435.29,175.939c-7.253-1.246-13.759-4.568-18.991-9.329c-0.028-0.249-0.055-0.498-0.111-0.748
			c-0.111-0.886-0.249-1.716-0.249-2.602c0-6.367,1.716-12.264,4.512-17.551c1.91,5.73,6.035,10.409,11.378,13.066
			c-0.277,1.44-0.443,2.934-0.443,4.485C-439.194,167.938-437.754,172.312-435.29,175.939z"/>
		<path fill="#24929F" d="M-343.603,192.161c-0.498,0.415-0.997,0.803-1.523,1.19c-6.312,4.706-14.035,7.613-22.479,7.613
			c-8.499,0-16.222-2.907-22.507-7.613c-0.637-0.471-1.246-0.941-1.827-1.439c3.903-3.377,7.115-7.475,9.385-12.181
			c3.986,3.571,9.191,5.786,14.949,5.786c5.537,0,10.547-2.076,14.506-5.398c1.744,3.46,4.014,6.644,6.672,9.412
			C-345.513,190.445-344.6,191.331-343.603,192.161z"/>
		<path fill="#24929F" d="M-382.554,179.731c-2.27,4.706-5.481,8.803-9.385,12.181c-0.581,0.498-1.163,0.969-1.772,1.439
			c-6.367,4.9-14.285,7.917-22.922,7.917c-8.72,0-16.721-2.962-23.088-7.917c-8.111-6.339-13.593-15.918-14.561-26.742
			c5.232,4.761,11.738,8.083,18.991,9.329c4.097,5.952,10.907,9.883,18.659,9.883c5.841,0,11.129-2.298,15.171-5.952
			c1.273-1.163,2.436-2.436,3.433-3.848c1.882,0.277,3.765,0.554,5.73,0.554c2.159,0,4.235-0.277,6.284-0.609
			C-385.017,177.378-383.827,178.596-382.554,179.731z"/>
	</g>
	<path fill="#24929F" d="M-311.109,304.438l11.338-8.927c-4.922-4.381-10.494-8.315-16.674-11.642
		c-3.526,4.237-7.537,8-11.995,11.162c5.611,2.533,10.671,5.611,15.162,9.098L-311.109,304.438z"/>
	<path fill="#24929F" d="M-308.235,185.196l-0.43-1.379l-9.964,6.317l3.454,3.244l4.91,9.181c4.944,9.264,7.564,19.73,7.564,30.246
		c0,35.449-28.845,64.294-64.294,64.294s-64.289-28.834-64.289-64.283c0-10.538,2.615-20.999,7.564-30.246l5.335-9.953l-9.501-5.694
		l-74.584,59.924l67.185,48.321l0,0l0.028,0.017l7.956,5.727c1.589,1.137,2.952,2.45,4.188,3.835l0.011,0.011l17.06-2.45
		c11.553,6.511,24.872,10.229,39.047,10.229c13.854,0,26.875-3.592,38.236-9.843l0.59-0.701l17.06,2.444l3.697-2.908
		c0.248-0.193,0.441-0.425,0.701-0.612l0.905-0.651l6.88-5.413h0.651l66.749-48.001L-308.235,185.196z M-476.995,246.169
		l31.14-25.016c-0.574,3.846-0.861,7.752-0.861,11.664c0,16.817,5.23,32.437,14.163,45.314L-476.995,246.169z M-301.426,278.109
		c8.922-12.867,14.152-28.475,14.152-45.292c0-3.906-0.287-7.807-0.861-11.664L-257,246.169L-301.426,278.109z"/>
	<path fill="#24929F" d="M-423.096,304.763l0.132-0.022c5.948-4.75,12.938-8.822,20.867-11.813
		c-4.287-3.404-8.127-7.366-11.443-11.785c-8.193,3.757-15.427,8.569-21.7,14.053L-423.096,304.763z"/>
	<g>
		<path fill="#24929F" d="M-411.815,477.577c-6.312,12.458-19.101,21.067-33.967,21.067c-10.492,0-19.987-4.236-26.908-11.129
			c-3.433-3.405-6.229-7.475-8.167-11.987l10.963-14.395c0.138,5.454,2.159,10.409,5.398,14.395
			c4.429,5.481,11.129,9.08,18.714,9.08c8.942,0,16.693-4.955,20.873-12.208c1.495,0.941,3.018,1.772,4.623,2.492
			C-417.601,476.109-414.777,477.023-411.815,477.577z"/>
		<path fill="#24929F" d="M-425.629,428.051c-1.467-0.914-2.99-1.744-4.595-2.492c-0.028,0-0.028,0-0.028,0
			c-1.052-0.471-2.159-0.914-3.267-1.301c-0.581-0.194-1.135-0.36-1.716-0.526c-1.135-0.332-2.298-0.609-3.488-0.83
			c-2.242-0.443-4.596-0.72-6.976-0.72c-0.858-9.745-5.343-18.465-12.098-24.749c-6.782-6.284-15.807-10.132-25.773-10.132
			c-21.095,0-38.258,17.136-38.258,38.231c0,1.246,0.249,2.408,0.36,3.599c-9.855,6.921-16.361,18.326-16.361,31.254
			c0,21.095,17.164,38.258,38.231,38.258c10.492,0,19.987-4.236,26.908-11.129c-3.433-3.405-6.229-7.475-8.167-11.987
			c-4.429,5.481-11.156,9.08-18.742,9.08c-13.343,0-24.195-10.852-24.195-24.223c0-6.478,2.602-12.347,6.782-16.693
			c3.239-3.377,7.419-5.813,12.181-6.865c-1.827-3.377-2.962-7.198-2.962-11.323c0-0.83,0.166-1.633,0.249-2.464
			c0.637-6.09,3.488-11.516,7.779-15.42c4.263-3.903,9.938-6.284,16.195-6.284c13.067,0,23.725,10.464,24.112,23.503
			c0,0.222,0.055,0.443,0.055,0.692c0,6.478-2.602,12.347-6.755,16.693c0.554,1.024,1.191,1.993,1.661,3.073
			c4.153-5.149,10.354-8.554,17.385-8.942c0.471-0.028,0.886-0.138,1.329-0.138c1.08,0,2.104,0.166,3.156,0.332
			c5.454,0.692,10.354,3.156,14.035,6.893c-0.166-1.135-0.36-2.242-0.36-3.377C-428.951,435.664-427.677,431.622-425.629,428.051z"
			/>
		<path fill="#24929F" d="M-212.938,425.864c0,0,0,0-0.028,0c0-0.111,0.028-0.221,0.028-0.332c0-21.095-17.136-38.231-38.203-38.231
			c-10.409,0-19.794,4.18-26.631,10.935c-6.367,6.256-10.547,14.728-11.323,24.168c-0.803-0.028-1.578-0.221-2.408-0.221
			c-0.581,0-1.135,0.055-1.689,0.138c-0.526,0.055-1.052,0.138-1.606,0.194c-1.246,0.111-2.436,0.277-3.654,0.471
			c-1.19,0.222-2.353,0.498-3.516,0.83c-2.325,0.637-4.54,1.495-6.644,2.575c2.658,3.903,4.235,8.554,4.235,13.62
			c3.737-2.381,8.111-3.793,12.873-3.793c0.277,0,0.526,0.083,0.803,0.083c1.052,0.028,2.104,0.138,3.156,0.304
			c11.323,1.91,21.344,13.565,23.171,9.136c-6.478-4.263-10.796-11.544-10.935-19.849c0-0.111-0.028-0.249-0.028-0.36
			c0-13.343,10.852-24.195,24.195-24.195c12.236,0,22.285,9.191,23.863,21.012c0.138,1.052,0.332,2.076,0.332,3.184
			c0,3.876-1.024,7.502-2.63,10.741c0.166,0,0.332-0.055,0.498-0.055c4.872,0,9.412,1.495,13.205,3.986
			c3.322,2.159,6.063,5.094,7.973,8.554c1.938,3.433,3.017,7.391,3.017,11.627c0,13.371-10.852,24.223-24.195,24.223
			c-12.236,0-22.285-9.191-23.863-21.039c-0.222,0-0.443-0.055-0.637-0.055h-0.028c-4.789-0.304-13.399-3.128-13.703-3.128v0.083
			c-0.028,13.316-10.88,24.14-24.195,24.14c-8.277,0-15.586-4.18-19.932-10.547h-0.028c-4.18,2.132-8.831,3.46-13.786,3.903
			c6.367,12.208,19.018,20.68,33.746,20.68c12.9,0,24.278-6.478,31.227-16.306c6.921,9.828,18.299,16.306,31.199,16.306
			c21.095,0,38.231-17.164,38.231-38.258C-190.846,445.104-199.926,431.954-212.938,425.864z"/>
		<path fill="#24929F" d="M-333.388,477.798c-1.218-0.138-2.408-0.36-3.599-0.609c-2.962-0.664-5.786-1.661-8.443-2.99
			c-4.374,6.256-11.627,10.409-19.849,10.409c-8.665,0-16.25-4.651-20.513-11.544c-2.27-3.682-3.682-8.001-3.682-12.679
			c0-0.637,0.166-1.246,0.222-1.882c-3.82,3.211-8.609,5.232-13.869,5.592c-0.554,0.028-1.052,0.166-1.606,0.166
			c-1.08,0-2.132-0.194-3.183-0.332c-5.426-0.72-10.326-3.156-14.008-6.865c0.138,1.08,0.332,2.187,0.332,3.322
			c0,4.402-1.273,8.471-3.322,12.014c1.495,0.914,3.018,1.772,4.623,2.492c2.685,1.218,5.509,2.132,8.471,2.685
			c2.298,0.443,4.651,0.72,7.087,0.72c1.91,0,3.737-0.304,5.564-0.554c3.184,6.173,7.945,11.406,13.759,15.087
			c5.841,3.682,12.734,5.814,20.126,5.814c14.728,0,27.351-8.443,33.746-20.652C-332.142,477.937-332.779,477.881-333.388,477.798z"
			/>
		<path fill="#24929F" d="M-294.797,422.487c-1.246,0.111-2.436,0.277-3.654,0.498c-1.19,0.222-2.381,0.498-3.516,0.83
			c-2.325,0.637-4.54,1.495-6.644,2.575h-0.028c-4.346-6.339-11.655-10.52-19.932-10.52c-8.194,0-15.447,4.125-19.821,10.409
			c-1.606-0.803-3.267-1.467-4.955-2.049c-1.163-0.36-2.325-0.692-3.488-0.941c-1.799-0.387-3.599-0.664-5.481-0.83
			c6.395-12.208,19.046-20.624,33.746-20.624C-313.843,401.835-301.192,410.278-294.797,422.487z"/>
		<path fill="#24929F" d="M-348.392,426.279c-2.685,3.848-4.291,8.527-4.346,13.537c-3.654-2.242-7.917-3.599-12.541-3.599
			c-0.387,0-0.747,0.111-1.135,0.111c0.111-1.246,0.304-2.464,0.526-3.654c0.471-2.408,1.163-4.734,2.076-6.949
			c0.443-1.107,0.941-2.187,1.495-3.267c1.882,0.166,3.682,0.443,5.481,0.83c1.163,0.277,2.325,0.581,3.488,0.941
			C-351.659,424.812-349.998,425.477-348.392,426.279z"/>
		<path fill="#24929F" d="M-311.463,474.061c-4.18,2.132-8.831,3.46-13.786,3.903h-0.028c-1.107,0.083-2.159,0.332-3.294,0.332
			c-0.997,0-1.965-0.221-2.962-0.304c-0.609-0.055-1.246-0.111-1.855-0.194c-1.218-0.138-2.408-0.36-3.599-0.609
			c-2.962-0.664-5.786-1.661-8.443-2.99c2.685-3.876,4.291-8.527,4.346-13.565c3.433,2.132,7.419,3.405,11.738,3.544
			c0.249,0,0.498,0.083,0.775,0.083c0.415,0,0.775-0.111,1.163-0.111c4.291-0.222,8.305-1.523,11.71-3.682
			C-315.67,465.507-314.12,470.185-311.463,474.061z"/>
		<path fill="#24929F" d="M-362.317,422.459c-0.554,1.08-1.052,2.159-1.495,3.267c-0.914,2.215-1.606,4.54-2.076,6.949
			c-0.222,1.19-0.415,2.408-0.526,3.654c-0.166,0-0.304,0.028-0.471,0.055c-5.288,0.36-10.049,2.381-13.869,5.592
			c0.055-0.664,0.194-1.273,0.194-1.91c0-4.651-1.384-8.969-3.654-12.679c-4.263-6.866-11.849-11.516-20.513-11.516
			c-8.942,0-16.721,4.955-20.873,12.181h-0.028c-1.467-0.941-3.017-1.772-4.595-2.492c-0.028,0-0.028,0-0.028,0
			c-1.08-0.498-2.159-0.914-3.267-1.301c-0.581-0.194-1.135-0.36-1.716-0.526c-1.135-0.332-2.298-0.609-3.488-0.83
			c6.339-12.458,19.101-21.067,33.995-21.067c14.811,0,27.545,8.554,33.885,20.901c1.827-0.277,3.654-0.581,5.564-0.581
			C-364.255,422.155-363.314,422.404-362.317,422.459z"/>
	</g>
	<path fill="#24929F" d="M-442.351,342.96h-0.005c-0.003,0-0.005-0.001-0.008-0.001l-15.022-6.752
		c-0.003,0.032-0.008,0.063-0.01,0.095l-0.37-0.266l-0.022-0.011l-91.925-66.131l-1.385-0.806c-3.415-1.495-6.202-3.586-8.287-6.19
		c-7.995-9.953-5.876-24.983,4.734-33.513l93.829-75.406c1.164-0.921,2.4-1.749,3.713-2.439l3.597-2.957
		c-1.832-3.945-2.913-8.304-2.913-12.949c0-0.309,0.083-0.601,0.088-0.916c-5.242,1.468-9.987,3.879-14.152,7.233l-93.834,75.406
		c-17.236,13.865-20.42,38.627-7.101,55.207c3.487,4.342,7.967,7.807,13.325,10.295l94.772,68.168
		c1.771,1.275,3.627,2.371,5.539,3.327v49.982c4.563,3.299,7.713,9.871,7.713,17.534c0,4.679-1.214,8.922-3.15,12.298
		c3.173-1.225,6.499-2.113,10.108-2.113c0.259,0,0.502,0.066,0.756,0.077v-73.31v-0.238c0.004,0,0.007,0.001,0.011,0.001V342.96
		H-442.351z"/>
	<path fill="#24929F" d="M-169.682,217.357l-93.818-75.39c-5.126-4.116-11.095-6.687-17.369-7.962
		c0.028,0.552,0.193,1.076,0.193,1.633c0,4.392-1.098,8.557-3.012,12.348l5.517,2.852c1.771,0.833,3.448,1.887,5.015,3.156
		l93.818,75.395c10.61,8.519,12.74,23.559,4.75,33.502c-2.108,2.626-4.905,4.706-8.298,6.202l-96.786,69.414
		c-1.322,0.948-2.726,1.707-4.162,2.375c-4.595,0.638-10.117,1.758-10.117,1.758l0.756,16.547v73.431
		c2.395,0.464,4.646,1.28,6.786,2.301c-1.032-2.72-1.677-5.815-1.677-9.159c0-9.176,4.447-16.778,10.317-18.439v-52.225
		c2.468-1.105,4.847-2.454,7.095-4.075l94.783-68.162c5.335-2.477,9.815-5.931,13.319-10.296
		C-149.256,255.984-152.44,231.216-169.682,217.357z"/>
	<path fill="#2EB2C2" d="M-204.882,460.385c0,13.371-10.852,24.223-24.195,24.223c-12.236,0-22.285-9.191-23.863-21.039
		c-0.222,0-0.443-0.055-0.637-0.055h-0.028c-4.789-0.304-13.399-3.128-13.703-3.128v0.083c-0.028,13.316-10.88,24.14-24.195,24.14
		c-8.277,0-15.586-4.18-19.932-10.547h-0.028c-2.658-3.876-4.208-8.554-4.235-13.593c-3.405,2.159-7.419,3.46-11.71,3.682
		c-0.388,0-0.748,0.111-1.163,0.111c-0.277,0-0.526-0.083-0.775-0.083c-4.319-0.138-8.305-1.412-11.738-3.544
		c-0.055,5.038-1.661,9.689-4.346,13.565c-4.374,6.256-11.627,10.409-19.849,10.409c-8.665,0-16.25-4.651-20.513-11.544
		c-2.27-3.682-3.682-8.001-3.682-12.679c0-0.637,0.166-1.246,0.222-1.882c-3.82,3.211-8.609,5.232-13.869,5.592
		c-0.554,0.028-1.052,0.166-1.606,0.166c-1.08,0-2.132-0.194-3.183-0.332c-5.426-0.72-10.326-3.156-14.008-6.865
		c0.138,1.08,0.332,2.187,0.332,3.322c0,4.402-1.273,8.471-3.322,12.014c-4.18,7.253-11.932,12.208-20.873,12.208
		c-7.585,0-14.285-3.599-18.714-9.08c-3.239-3.986-5.26-8.942-5.398-14.395l-10.963,14.395c-4.429,5.481-11.156,9.08-18.742,9.08
		c-13.343,0-24.195-10.852-24.195-24.223c0-6.478,2.602-12.347,6.782-16.693c3.239-3.377,7.419-5.813,12.181-6.865
		c-1.827-3.377-2.962-7.198-2.962-11.323c0-0.83,0.166-1.633,0.249-2.464c0.637-6.09,3.488-11.516,7.779-15.42
		c4.263-3.903,9.938-6.284,16.195-6.284c13.067,0,23.725,10.464,24.112,23.503c0,0.222,0.055,0.443,0.055,0.692
		c0,6.478-2.602,12.347-6.755,16.693c0.554,1.024,1.191,1.993,1.661,3.073c4.153-5.149,10.354-8.554,17.385-8.942
		c0.471-0.028,0.886-0.138,1.329-0.138c1.08,0,2.104,0.166,3.156,0.332c5.454,0.692,10.354,3.156,14.035,6.893
		c-0.166-1.135-0.36-2.242-0.36-3.377c0-4.402,1.273-8.443,3.322-12.014h0.028c4.152-7.225,11.932-12.181,20.873-12.181
		c8.665,0,16.25,4.651,20.513,11.516c2.27,3.709,3.654,8.028,3.654,12.679c0,0.637-0.138,1.246-0.194,1.91
		c3.82-3.211,8.582-5.232,13.869-5.592c0.166-0.028,0.304-0.055,0.471-0.055c0.388,0,0.747-0.111,1.135-0.111
		c4.623,0,8.886,1.356,12.541,3.599c0.055-5.011,1.661-9.689,4.346-13.537c4.374-6.284,11.627-10.409,19.821-10.409
		c8.277,0,15.586,4.18,19.932,10.52h0.028c2.658,3.903,4.235,8.554,4.235,13.62c3.737-2.381,8.111-3.793,12.873-3.793
		c0.277,0,0.526,0.083,0.803,0.083c1.052,0.028,2.104,0.138,3.156,0.304c11.323,1.91,21.344,13.565,23.171,9.136
		c-6.478-4.263-10.796-11.544-10.935-19.849c0-0.111-0.028-0.249-0.028-0.36c0-13.343,10.852-24.195,24.195-24.195
		c12.236,0,22.285,9.191,23.863,21.012c0.138,1.052,0.332,2.076,0.332,3.184c0,3.876-1.024,7.502-2.63,10.741
		c0.166,0,0.332-0.055,0.498-0.055c4.872,0,9.412,1.495,13.205,3.986c3.322,2.159,6.063,5.094,7.973,8.554
		C-205.961,452.191-204.882,456.15-204.882,460.385z"/>
	<path fill="#2EB2C2" d="M-306.729,116.004c-1.91,0-3.737,0.305-5.509,0.748c-5.204,1.329-9.689,4.429-12.734,8.693
		c-1.467-2.021-3.211-3.765-5.232-5.204c-2.242-1.606-4.789-2.768-7.53-3.46c-1.799-0.471-3.627-0.775-5.537-0.775
		c-0.664,0-1.301,0.138-1.965,0.194c0.055-0.664,0.194-1.273,0.194-1.965c0-4.872-1.578-9.357-4.208-13.039
		c-4.097-5.758-10.769-9.523-18.354-9.523c-7.613,0-14.285,3.793-18.382,9.551h-0.028c-2.602,3.682-4.18,8.167-4.18,13.011
		c0,0.692,0.139,1.329,0.194,1.993c-0.747-0.055-1.495-0.222-2.298-0.222c-1.91,0-3.71,0.305-5.481,0.748v0.028
		c-2.63,0.664-5.094,1.716-7.281,3.211c-2.132,1.495-3.959,3.35-5.481,5.454c0.138,0.166,0.277,0.277,0.388,0.443
		c-0.249-0.028-0.471-0.028-0.72-0.055c0.111-0.138,0.222-0.249,0.332-0.387c-3.073-4.236-7.558-7.364-12.762-8.665
		c-1.772-0.471-3.599-0.775-5.509-0.775c-12.458,0-22.59,10.132-22.59,22.59c0,2.491,0.498,4.872,1.273,7.115
		c1.91,5.73,6.035,10.409,11.378,13.066c-0.277,1.44-0.443,2.934-0.443,4.485c0,4.678,1.439,9.053,3.903,12.679
		c4.097,5.952,10.907,9.883,18.659,9.883c5.841,0,11.129-2.298,15.171-5.952c1.273-1.163,2.436-2.436,3.433-3.848
		c1.882,0.277,3.765,0.554,5.73,0.554c2.159,0,4.235-0.277,6.284-0.609c0.997,1.412,2.187,2.63,3.46,3.765
		c3.986,3.571,9.191,5.786,14.949,5.786c5.537,0,10.547-2.076,14.506-5.398c1.44-1.246,2.768-2.602,3.848-4.125
		c1.965,0.304,3.931,0.581,5.98,0.581c1.882,0,3.682-0.277,5.481-0.526c1.08,1.55,2.408,2.907,3.848,4.152
		c3.959,3.46,9.08,5.62,14.728,5.62c3.848,0,7.502-0.969,10.686-2.713c3.184-1.716,5.897-4.18,7.945-7.142
		c2.492-3.627,3.959-8.001,3.959-12.707c0-1.495-0.166-2.934-0.443-4.346c5.398-2.602,9.551-7.198,11.544-12.873
		c0.831-2.353,1.357-4.817,1.357-7.447C-284.167,126.136-294.271,116.004-306.729,116.004z M-325.36,125.86
		c0.111-0.166,0.249-0.277,0.36-0.415c0.111,0.111,0.221,0.221,0.304,0.36C-324.917,125.832-325.138,125.832-325.36,125.86z"/>
	<path fill="#2EB2C2" d="M-410.874,125.832c0.111-0.138,0.222-0.249,0.332-0.387c0.138,0.166,0.277,0.277,0.388,0.443
		C-410.403,125.86-410.625,125.86-410.874,125.832z"/>
	<path fill="#2EB2C2" d="M-325,125.444c0.111,0.111,0.221,0.221,0.304,0.36c-0.221,0.028-0.443,0.028-0.664,0.055
		C-325.249,125.693-325.111,125.583-325,125.444z"/>
</g>
<g>
	<path fill="#24929F" d="M249.998,48.278C138.768,48.278,48.281,138.77,48.281,250s90.487,201.722,201.717,201.722
		S451.719,361.23,451.719,250S361.228,48.278,249.998,48.278z M249.998,437.572C146.573,437.572,62.43,353.429,62.43,250
		S146.573,62.428,249.998,62.428c103.429,0,187.572,84.143,187.572,187.572S353.427,437.572,249.998,437.572z"/>
	<path fill="#2EB2C2" d="M249.998,78.144c-94.76,0-171.852,77.097-171.852,171.856s77.092,171.856,171.852,171.856
		S421.854,344.76,421.854,250S344.758,78.144,249.998,78.144z M249.998,417.734c-92.491,0-167.734-75.243-167.734-167.734
		S157.506,82.266,249.998,82.266S417.732,157.509,417.732,250S342.489,417.734,249.998,417.734z"/>
	<path fill="#2EB2C2" d="M162.695,276.837l-9.688,24.833c-1.42,3.636,0.382,7.745,4.018,9.16c0.844,0.335,1.717,0.486,2.571,0.486
		c2.83,0,5.504-1.707,6.594-4.504l10.768-27.596c3.896-0.335,7.424-1.632,10.697-3.514l6.221,16.145
		c1.08,2.811,3.764,4.533,6.603,4.533c0.844,0,1.703-0.151,2.542-0.476c3.646-1.406,5.466-5.499,4.061-9.141l-7.664-19.904
		c4.217-3.537,8.57-7.075,13.716-9.636l8.801,33.86c0.825,3.188,3.698,5.297,6.844,5.297c0.59,0,1.189-0.075,1.783-0.226
		c3.783-0.986,6.051-4.844,5.066-8.631l-8.928-34.341c2.995-0.689,5.58-1.585,7.768-2.655l23.29,12.051
		c1.042,0.538,2.151,0.792,3.245,0.792c2.561,0,5.028-1.391,6.287-3.825c1.797-3.471,0.439-7.74-3.033-9.532l-19.027-9.843
		c0.358-0.741,0.665-1.472,0.91-2.179c1.561-4.457,1.528-9.169,0.538-13.702l19.696-1.83c3.891-0.358,6.754-3.806,6.386-7.697
		c-0.358-3.891-3.886-6.792-7.697-6.386l-24.578,2.278c-0.821-1.123-1.674-2.188-2.566-3.16c-1.594-1.745-3.217-4.91-4.811-8.315
		l19.753-8.735c3.575-1.58,5.193-5.759,3.613-9.334c-1.585-3.575-5.768-5.193-9.334-3.613l-20.225,8.943
		c-2.094-3.712-4.584-7.273-7.688-10.093l6.122-21.064c1.09-3.754-1.066-7.679-4.82-8.768c-3.75-1.104-7.679,1.071-8.768,4.816
		l-5.613,19.314c-1.25-0.085-2.537-0.104-3.915,0.019c-4.485,0.382-9.093,1.189-13.612,2.363l-5.599-25.917
		c-0.825-3.82-4.599-6.249-8.41-5.419c-3.82,0.825-6.249,4.589-5.424,8.405l6.009,27.832c-4.471,2.179-8.537,4.834-11.947,7.952
		l-24.814-17.824c-3.174-2.269-7.594-1.552-9.872,1.622c-2.278,3.174-1.556,7.594,1.618,9.876l24.847,17.847
		c-0.75,1.868-1.34,3.82-1.646,5.882c-0.769,5.16-4.424,9.221-8.768,13.235l-23.196-11.376c-3.514-1.731-7.749-0.274-9.466,3.24
		c-1.722,3.504-0.274,7.745,3.236,9.466l18.644,9.141c-2.283,2.83-4.108,6.023-4.735,9.622l-29.813,5.834
		c-3.835,0.75-6.334,4.467-5.584,8.301c0.66,3.377,3.622,5.716,6.938,5.716c0.448,0,0.906-0.042,1.368-0.132l30.705-6.009
		c2.283,3.419,4.424,6.386,6.532,9.108l-16.432,18.975c-2.556,2.953-2.236,7.419,0.717,9.975c1.34,1.16,2.986,1.726,4.627,1.726
		c1.981,0,3.952-0.83,5.349-2.448l15.527-17.932C152.955,272.837,157.37,275.111,162.695,276.837z M167.378,205.363
		c1.66-11.112,19.635-19.201,36.053-20.602c0.302-0.024,0.594-0.038,0.882-0.038c6.169,0,9.777,6.891,14.574,17.399
		c2.594,5.674,5.037,11.037,8.603,14.923c3.905,4.259,6.957,11.508,5.292,16.253c-1.179,3.358-5.009,5.566-11.39,6.561
		c-14.56,2.273-24.182,10.358-31.917,16.857c-5.65,4.745-10.112,8.494-14.39,8.494c-0.514,0-1.042-0.052-1.585-0.156
		c-14.003-2.665-18.819-7.282-29.238-22.913c-2.155-3.236-2.321-4.297,6.679-12.282
		C157.506,224.035,165.675,216.786,167.378,205.363z"/>
	<ellipse fill="#2EB2C2" cx="191.432" cy="203.547" rx="9.042" ry="7.933"/>
	<ellipse fill="#2EB2C2" cx="165.888" cy="240.883" rx="6.287" ry="5.033"/>
	<ellipse fill="#2EB2C2" cx="194.305" cy="230.412" rx="6.169" ry="5.438"/>
	<path fill="#2EB2C2" d="M329,304.24c-19.21-20.309-44.708,18.361-56.598,39.501c-5.551,9.867-17.097,36.553,7.075,41.27
		c24.172,4.717,21.8-24.762,30.068-38.322C320.128,329.332,349.635,326.054,329,304.24z"/>
	<path fill="#2EB2C2" d="M290.899,168.635c13.178,15.48,7.07,44.529,34.242,31.747c25.295-11.9-3.462-48.208-19.828-66.112
		c-7.636-8.353-29.379-27.667-41.416-6.183C251.861,149.58,280.603,156.547,290.899,168.635z"/>
	<path fill="#2EB2C2" d="M388.985,255.905l-0.387-1.113c-0.377-1.42,0.712-6.603,1.509-10.391
		c2.288-10.867,5.136-24.389-1.887-33.049c-3.792-4.674-9.829-7.042-17.951-7.042c-11.041,0-16.895,5.632-19.861,10.362
		c-6.094,9.711-5.745,25.446,0.877,39.147c2.651,5.481,0.929,13.786-0.722,21.819c-2.047,9.905-4.16,20.144,1.363,27.563
		c3.5,4.698,9.362,7.348,17.937,8.098c1.212,0.104,2.372,0.156,3.471,0.156c8.103,0,14.154-2.731,17.984-8.122
		C399.833,291.369,394.064,270.536,388.985,255.905z M383.631,297.863c-1.99,2.797-5.358,4.155-10.301,4.155
		c-0.84,0-1.722-0.038-2.651-0.118c-5.65-0.495-9.414-1.953-11.188-4.335c-2.995-4.028-1.391-11.796,0.302-20.022
		c1.976-9.57,4.023-19.465-0.019-27.823c-5.179-10.725-5.745-23.078-1.377-30.035c2.471-3.943,6.466-5.943,11.872-5.943
		c5.136,0,8.716,1.198,10.626,3.552c4.193,5.174,1.759,16.725-0.019,25.163c-1.429,6.787-2.462,11.697-1.217,15.352l0.41,1.193
		C386.867,278.568,388.06,291.642,383.631,297.863z"/>
	<ellipse fill="#2EB2C2" cx="371.156" cy="283.016" rx="6.782" ry="7.919"/>
	<ellipse fill="#2EB2C2" cx="370.123" cy="229.662" rx="5.749" ry="6.188"/>
	<path fill="#2EB2C2" d="M221.84,329.681l-28.299,30.658c-3.533,3.83-3.292,9.796,0.533,13.329c1.811,1.67,4.108,2.5,6.396,2.5
		c2.542,0,5.075-1.023,6.933-3.037l28.299-30.658c3.533-3.83,3.292-9.796-0.533-13.329
		C231.348,325.616,225.377,325.851,221.84,329.681z"/>
	<path fill="#2EB2C2" d="M231.207,151.052c1.137,4.212,4.943,6.98,9.103,6.98c0.811,0,1.637-0.104,2.457-0.33
		c5.028-1.354,8.009-6.532,6.655-11.56l-11.541-42.803c-1.358-5.033-6.537-8.028-11.565-6.65c-5.028,1.354-8.009,6.532-6.655,11.56
		L231.207,151.052z"/>
	<path fill="#2EB2C2" d="M345.767,203.613c1.552,0.972,3.278,1.434,4.985,1.434c3.146,0,6.221-1.571,8.009-4.438l13.617-21.819
		c2.759-4.419,1.415-10.24-3.009-12.994c-4.419-2.769-10.235-1.415-12.994,3.009l-13.617,21.819
		C339.999,195.038,341.343,200.858,345.767,203.613z"/>
	<path fill="#2EB2C2" d="M317.614,267.314c1.637,0,3.297-0.424,4.811-1.321c4.476-2.655,5.952-8.447,3.292-12.928l-19.541-32.912
		c-2.655-4.471-8.438-5.966-12.928-3.292c-4.476,2.655-5.952,8.447-3.292,12.928l19.541,32.912
		C311.256,265.664,314.393,267.314,317.614,267.314z"/>
	<path fill="#2EB2C2" d="M294.465,260.928l-32.346,13.367c-4.816,1.99-7.108,7.509-5.117,12.32c1.5,3.636,5.014,5.834,8.726,5.834
		c1.198,0,2.42-0.236,3.599-0.717l32.346-13.367c4.816-1.99,7.108-7.509,5.117-12.32
		C304.799,261.235,299.295,258.943,294.465,260.928z"/>
	<path fill="#2EB2C2" d="M256.94,305.16c-0.868-5.136-5.731-8.598-10.876-7.726c-5.136,0.873-8.594,5.74-7.721,10.876l5.377,31.7
		c0.783,4.608,4.773,7.858,9.287,7.858c0.524,0,1.057-0.042,1.589-0.132c5.136-0.873,8.594-5.74,7.721-10.876L256.94,305.16z"/>
	<path fill="#2EB2C2" d="M188.055,326.795c-1.872-4.863-7.329-7.296-12.192-5.415l-30.771,11.839
		c-4.863,1.868-7.287,7.329-5.415,12.188c1.443,3.75,5.014,6.051,8.806,6.051c1.127,0,2.269-0.208,3.386-0.637l30.771-11.839
		C187.499,337.114,189.923,331.653,188.055,326.795z"/>
	<path fill="#2EB2C2" d="M180.83,362.985c-2.066-4.787-7.636-6.976-12.404-4.905c-4.783,2.071-6.976,7.622-4.905,12.404
		l10.221,23.583c1.542,3.561,5.014,5.688,8.66,5.688c1.255,0,2.523-0.255,3.745-0.783c4.783-2.071,6.976-7.622,4.905-12.404
		L180.83,362.985z"/>
	<path fill="#2EB2C2" d="M351.814,334.544l-32.105,24.715c-4.132,3.179-4.9,9.103-1.722,13.23c1.863,2.415,4.655,3.679,7.48,3.679
		c2.014,0,4.033-0.641,5.749-1.957l32.105-24.715c4.132-3.179,4.9-9.103,1.722-13.23
		C361.85,332.134,355.926,331.374,351.814,334.544z"/>
</g>
</svg>
