<?xml version="1.0" encoding="utf-8"?>
<!-- Generator: Adobe Illustrator 13.0.0, SVG Export Plug-In . SVG Version: 6.00 Build 14948)  -->
<!DOCTYPE svg PUBLIC "-//W3C//DTD SVG 1.0//EN" "http://www.w3.org/TR/2001/REC-SVG-20010904/DTD/svg10.dtd">
<svg version="1.0" id="Layer_1" xmlns="http://www.w3.org/2000/svg" xmlns:xlink="http://www.w3.org/1999/xlink" x="0px" y="0px"
	 width="192.756px" height="192.756px" viewBox="0 0 192.756 192.756" enable-background="new 0 0 192.756 192.756"
	 xml:space="preserve">
<g>
	<polygon fill-rule="evenodd" clip-rule="evenodd" fill="#FFFFFF" points="0,0 192.756,0 192.756,192.756 0,192.756 0,0 	"/>
	<path fill-rule="evenodd" clip-rule="evenodd" d="M84.75,97.475v5.135v0.232c0,1.904-1.385,3.809-3.52,3.865l0,0
		c-0.058,0-0.058,0-0.115,0h-0.058l0,0c-2.193-0.057-3.578-1.961-3.578-3.865v-0.232V97.07v-3.809v-5.598v-0.231
		c0-1.904,1.385-3.809,3.578-3.866l0,0h0.058c0.057,0,0.057,0,0.115,0l0,0c2.135,0.058,3.52,1.962,3.52,3.866v0.231V92.8V97.475
		L84.75,97.475z"/>
	<path fill-rule="evenodd" clip-rule="evenodd" d="M101.312,91.3h2.827h0.231c1.788,0,3.635,1.385,3.692,3.636l0,0
		c0,0.057,0,0.115,0,0.115c0,0.058,0,0.058,0,0.115l0,0c-0.058,2.309-1.847,3.809-3.692,3.809H94.56
		c-1.846,0-3.635,1.443-3.693,3.693l0,0c0,0.059,0,0.115,0,0.115c0,0.059,0,0.059,0,0.115l0,0c0.058,2.309,1.847,3.809,3.693,3.809
		h10.099c8.829,0,10.676-7.674,10.676-10.56c0-2.885-0.981-5.54-2.828-7.444c-0.75-0.692-1.615-1.327-2.423-1.789
		c0.346-0.23,0.634-0.519,0.865-0.808c1.847-1.904,2.885-4.501,2.885-7.387c0-2.539-1.442-8.887-7.905-10.329
		c-0.058,0-0.115,0-0.174-0.058c-0.23,0-0.461-0.058-0.692-0.115c-0.288,0-0.519-0.115-0.808-0.115c-0.23,0-22.91,0-22.91,0h-0.23
		c-1.789,0-3.578,1.5-3.636,3.75h-0.058c0,0.058,0,0.116,0,0.116c0,0.058,0,0.058,0,0.115h0.058c0.058,2.25,1.847,3.693,3.636,3.693
		h0.23h21.178h0.231c1.789,0,3.521,1.443,3.636,3.751l0,0c0,0,0,0.058,0,0.115v0.058l0,0c-0.115,2.308-1.904,3.924-3.751,3.924
		h-0.174h-1.558h-6.117H94.56c-1.789,0-3.578,1.385-3.635,3.693l0,0c0,0.058,0,0.058,0,0.115c0,0,0,0.058,0,0.116l0,0
		c0.058,2.25,1.846,3.751,3.635,3.751h0.231H101.312L101.312,91.3z"/>
	<path fill-rule="evenodd" clip-rule="evenodd" d="M99.35,16.742v6.06v0.23c0,1.904-1.327,3.232-3.462,3.347l0,0
		c-0.058,0-0.116,0-0.116,0c-0.058,0-0.058,0-0.115,0l0,0c-2.135-0.115-3.578-1.443-3.578-3.347v-0.23v-6.463v-3.809V6.932v-0.23
		c0-1.904,1.443-3.809,3.578-3.867l0,0c0.058,0,0.058,0,0.115,0c0,0,0.058,0,0.116,0l0,0c2.135,0.058,3.462,1.962,3.462,3.867v0.23
		v5.136V16.742L99.35,16.742z"/>
	<path fill-rule="evenodd" clip-rule="evenodd" d="M84.808,10.048V6.932v-0.23c0-1.904-1.385-3.809-3.52-3.867l0,0
		c-0.058,0-0.058,0-0.116,0h-0.057l0,0c-2.193,0.058-3.636,1.962-3.636,3.867v0.23v4.905c0,0.115,0,0.173,0,0.23v0.347v14.484v0.231
		c0,4.155,1.904,7.906,5.424,10.56c3.289,2.481,7.791,3.867,12.753,3.867c4.962,0,9.58-1.385,12.869-3.924
		c3.52-2.597,5.424-6.348,5.424-10.503l0.059-0.346V6.932v-0.23c0-1.904-1.327-3.809-3.521-3.867l0,0c0,0-0.058,0-0.115,0h-0.058
		l0,0c-2.193,0.058-3.636,1.962-3.636,3.867c0,0,0,0.75,0,1.904v1.442v14.254v0.173c0,4.04-1.442,6.406-5.021,8.079
		c-1.674,0.808-3.693,1.27-5.944,1.27l0,0c-2.25,0-4.271-0.461-5.944-1.27c-3.578-1.673-4.963-4.04-4.963-8.079v-0.173V10.048
		L84.808,10.048z"/>
	<path fill-rule="evenodd" clip-rule="evenodd" d="M95.888,148.604v-0.059c-0.058,0-0.058,0.059-0.116,0.059l-0.058-0.059v0.059
		c-2.135,0.057-3.52,1.326-3.52,3.23v0.23v1.443v0.23c0,1.904,1.385,3.174,3.52,3.232l0,0h0.058c0.058,0,0.058,0,0.116,0l0,0
		c2.135-0.059,3.52-1.328,3.52-3.232v-0.23v-1.443v-0.23C99.407,149.93,98.022,148.66,95.888,148.604L95.888,148.604z"/>
	<path fill-rule="evenodd" clip-rule="evenodd" d="M108.525,137.178c-3.289-2.482-7.848-3.867-12.753-3.867h-0.115
		c-4.963,0-9.464,1.385-12.753,3.867c-3.52,2.654-5.424,6.404-5.424,10.559v0.232v9.521v0.23c0,4.154,1.904,7.906,5.424,10.561
		c3.289,2.48,7.791,3.865,12.753,3.865h0.115c4.906,0,9.464-1.385,12.753-3.865c3.463-2.654,5.367-6.406,5.367-10.561v-0.23v-9.521
		v-0.232C113.893,143.582,111.988,139.832,108.525,137.178L108.525,137.178z M106.621,155.066c0,4.039-1.442,6.404-5.021,8.078
		c-1.616,0.809-3.693,1.27-5.886,1.27c-2.25,0-4.271-0.461-5.944-1.27c-3.578-1.674-5.021-4.039-5.021-8.078v-4.674
		c0-4.098,1.442-6.406,5.021-8.08c1.673-0.809,3.693-1.27,5.944-1.27c2.193,0,4.27,0.461,5.886,1.27
		c3.578,1.674,5.021,3.982,5.021,8.08V155.066L106.621,155.066z"/>
	<path fill-rule="evenodd" clip-rule="evenodd" d="M57.397,186.229c0,2.191-1.443,3.693-3.578,3.693c-2.02,0-3.52-1.559-3.52-3.693
		c0-2.02,1.558-3.637,3.52-3.637C55.896,182.592,57.397,184.094,57.397,186.229L57.397,186.229z M51.684,186.229
		c0,1.441,0.866,2.424,2.135,2.424c1.385,0,2.251-0.924,2.251-2.424c0-1.385-0.981-2.367-2.251-2.367
		C52.55,183.861,51.684,184.844,51.684,186.229L51.684,186.229z"/>
	<path fill-rule="evenodd" clip-rule="evenodd" d="M66.284,184.611c-0.75-0.576-1.27-0.691-1.846-0.691
		c-1.212,0-2.02,0.924-2.02,2.365c0,1.443,0.866,2.309,2.25,2.309c0.577,0,1.097-0.115,1.731-0.461v1.385
		c-0.404,0.23-1.269,0.404-1.961,0.404c-1.962,0-3.348-1.443-3.348-3.521c0-2.307,1.27-3.809,3.232-3.809
		c0.808,0,1.327,0.23,1.962,0.52V184.611L66.284,184.611z"/>
	<path fill-rule="evenodd" clip-rule="evenodd" d="M75.286,184.611c-0.75-0.576-1.27-0.691-1.847-0.691
		c-1.212,0-2.02,0.924-2.02,2.365c0,1.443,0.865,2.309,2.25,2.309c0.577,0,1.096-0.115,1.731-0.461v1.385
		c-0.404,0.23-1.27,0.404-1.962,0.404c-1.962,0-3.347-1.443-3.347-3.521c0-2.307,1.27-3.809,3.232-3.809
		c0.808,0,1.327,0.23,1.962,0.52V184.611L75.286,184.611z"/>
	<path fill-rule="evenodd" clip-rule="evenodd" d="M80.768,189.807h-1.327v-7.041h1.327V189.807L80.768,189.807z M80.076,181.438
		c-0.404,0-0.75-0.346-0.75-0.807c0-0.463,0.346-0.809,0.75-0.809c0.462,0,0.808,0.346,0.808,0.809
		C80.884,181.092,80.538,181.438,80.076,181.438L80.076,181.438z"/>
	<path fill-rule="evenodd" clip-rule="evenodd" d="M90.925,189.807h-2.828c-1.962,0-3.174-1.443-3.174-3.693
		c0-2.02,1.327-3.521,3.289-3.521c0.461,0,0.866,0.115,1.385,0.289v-3.75h1.327V189.807L90.925,189.807z M89.598,184.15
		c-0.462-0.174-0.808-0.289-1.212-0.289c-1.269,0-2.135,0.982-2.135,2.424c0,1.328,0.519,2.309,2.02,2.309h1.328V184.15
		L89.598,184.15z"/>
	<path fill-rule="evenodd" clip-rule="evenodd" d="M100.793,189.113c-0.809,0.52-1.559,0.809-2.655,0.809
		c-2.077,0-3.231-1.789-3.231-3.752c0-2.135,1.269-3.578,3.116-3.578c1.731,0,2.886,1.27,2.886,3.867h-4.674
		c0.23,1.385,0.981,2.135,2.25,2.135c0.75,0,1.5-0.289,2.309-0.865V189.113L100.793,189.113z M99.581,185.535
		c-0.058-1.039-0.635-1.73-1.559-1.73c-0.981,0-1.558,0.635-1.789,1.73H99.581L99.581,185.535z"/>
	<path fill-rule="evenodd" clip-rule="evenodd" d="M106.159,183.689L106.159,183.689c0.52-0.693,1.212-1.098,1.962-1.098
		c1.27,0,2.251,0.924,2.251,2.885v4.33h-1.27v-4.387c0-1.039-0.52-1.674-1.327-1.674c-0.577,0-1.039,0.289-1.616,0.98v5.08h-1.327
		v-7.041h1.327V183.689L106.159,183.689z"/>
	<path fill-rule="evenodd" clip-rule="evenodd" d="M116.315,182.766h2.078v1.27h-2.078v3.578c0,0.807,0.52,1.039,0.924,1.039
		c0.462,0,0.98-0.174,1.5-0.52v1.326c-0.461,0.23-1.153,0.463-1.615,0.463c-1.386,0-2.136-0.924-2.136-2.193v-3.693h-1.154v-0.174
		l2.481-2.539V182.766L116.315,182.766z"/>
	<path fill-rule="evenodd" clip-rule="evenodd" d="M127.338,189.402c-0.577,0.404-0.865,0.52-1.27,0.52
		c-0.577,0-0.865-0.232-0.981-0.693c-0.577,0.461-1.211,0.693-1.788,0.693c-0.981,0-1.616-0.809-1.616-1.732
		c0-1.385,1.212-1.789,2.25-2.191l1.154-0.463v-0.346c0-0.924-0.403-1.27-1.211-1.27c-0.693,0-1.443,0.346-2.078,1.154v-1.502
		c0.52-0.633,1.27-0.98,2.193-0.98c1.327,0,2.423,0.75,2.423,2.367v3.576c0,0.289,0.059,0.348,0.231,0.348
		c0.115,0,0.404-0.115,0.692-0.348V189.402L127.338,189.402z M125.087,186.285c-1.096,0.404-2.077,0.809-2.077,1.674
		c0,0.576,0.404,0.98,0.923,0.98c0.404,0,0.809-0.23,1.154-0.576V186.285L125.087,186.285z"/>
	<polygon fill-rule="evenodd" clip-rule="evenodd" points="132.416,189.807 131.089,189.807 131.089,179.131 132.416,179.131 
		132.416,189.807 	"/>
	<path fill-rule="evenodd" clip-rule="evenodd" d="M142.342,189.113c-0.75,0.52-1.5,0.809-2.597,0.809
		c-2.078,0-3.231-1.789-3.231-3.752c0-2.135,1.27-3.578,3.116-3.578c1.73,0,2.827,1.27,2.827,3.867h-4.616
		c0.173,1.385,0.923,2.135,2.192,2.135c0.809,0,1.559-0.289,2.309-0.865V189.113L142.342,189.113z M141.188,185.535
		c-0.058-1.039-0.635-1.73-1.558-1.73c-0.981,0-1.616,0.635-1.789,1.73H141.188L141.188,185.535z"/>
	<path fill-rule="evenodd" clip-rule="evenodd" d="M56.474,124.598h-2.77c-2.02,0-3.231-1.443-3.231-3.693
		c0-2.021,1.385-3.463,3.289-3.463c0.461,0,0.866,0.057,1.385,0.289v-3.809h1.327V124.598L56.474,124.598z M55.146,118.941
		c-0.404-0.174-0.75-0.289-1.212-0.289c-1.269,0-2.135,0.982-2.135,2.482c0,1.27,0.519,2.309,2.02,2.309h1.328V118.941
		L55.146,118.941z"/>
	<path fill-rule="evenodd" clip-rule="evenodd" d="M66.168,123.904c-0.808,0.576-1.558,0.809-2.655,0.809
		c-2.077,0-3.231-1.789-3.231-3.693c0-2.137,1.27-3.578,3.116-3.578c1.731,0,2.885,1.27,2.885,3.865h-4.674
		c0.231,1.387,0.981,2.078,2.251,2.078c0.75,0,1.5-0.289,2.308-0.809V123.904L66.168,123.904z M64.957,120.385
		c-0.058-1.098-0.635-1.732-1.558-1.732c-0.981,0-1.558,0.578-1.789,1.732H64.957L64.957,120.385z"/>
	<path fill-rule="evenodd" clip-rule="evenodd" d="M76.729,118.076c0.577-0.463,1.154-0.635,1.846-0.635
		c1.616,0,2.828,1.5,2.828,3.463c0,2.422-1.328,3.809-3.521,3.809c-0.865,0-1.789-0.174-2.481-0.52v-10.271h1.328V118.076
		L76.729,118.076z M76.729,123.211c0.404,0.115,0.923,0.232,1.327,0.232c1.211,0,2.02-0.982,2.02-2.309
		c0-1.5-0.75-2.482-1.847-2.482c-0.519,0-0.923,0.23-1.5,0.75V123.211L76.729,123.211z"/>
	<path fill-rule="evenodd" clip-rule="evenodd" d="M86.597,117.557v1.615h0.058c0.635-1.211,1.27-1.73,1.904-1.73
		c0.52,0,1.039,0.23,1.558,0.807l-0.692,1.213c-0.404-0.404-0.923-0.693-1.212-0.693c-0.866,0-1.616,0.924-1.616,2.137v3.693h-1.27
		v-7.041H86.597L86.597,117.557z"/>
	<path fill-rule="evenodd" clip-rule="evenodd" d="M98.657,123.904c-0.808,0.576-1.558,0.809-2.654,0.809
		c-2.078,0-3.232-1.789-3.232-3.693c0-2.137,1.27-3.578,3.117-3.578c1.731,0,2.885,1.27,2.885,3.865h-4.674
		c0.231,1.387,0.981,2.078,2.25,2.078c0.75,0,1.5-0.289,2.308-0.809V123.904L98.657,123.904z M97.445,120.385
		c-0.057-1.098-0.577-1.732-1.558-1.732s-1.558,0.578-1.731,1.732H97.445L97.445,120.385z"/>
	<path fill-rule="evenodd" clip-rule="evenodd" d="M104.082,117.557h2.077v1.27h-2.077v3.578c0,0.865,0.52,1.096,0.923,1.096
		c0.462,0,0.981-0.174,1.501-0.52v1.27c-0.462,0.289-1.154,0.463-1.616,0.463c-1.442,0-2.135-0.924-2.135-2.193v-3.693h-1.154
		v-0.174l2.481-2.539V117.557L104.082,117.557z"/>
	<path fill-rule="evenodd" clip-rule="evenodd" d="M114.931,124.193c-0.635,0.404-0.865,0.52-1.27,0.52
		c-0.577,0-0.923-0.232-1.039-0.693c-0.577,0.461-1.153,0.693-1.73,0.693c-0.981,0-1.674-0.809-1.674-1.732
		c0-1.385,1.212-1.789,2.251-2.191l1.212-0.463v-0.346c0-0.865-0.404-1.213-1.212-1.213c-0.751,0-1.443,0.348-2.078,1.154v-1.559
		c0.52-0.633,1.212-0.922,2.193-0.922c1.327,0,2.365,0.691,2.365,2.309v3.576c0,0.289,0.116,0.404,0.289,0.404
		c0.115,0,0.404-0.172,0.692-0.404V124.193L114.931,124.193z M112.681,121.135c-1.154,0.404-2.136,0.807-2.136,1.615
		c0,0.576,0.404,0.98,0.981,0.98c0.403,0,0.808-0.23,1.154-0.576V121.135L112.681,121.135z"/>
	<path fill-rule="evenodd" clip-rule="evenodd" d="M123.702,118.652h-1.327c0.52,0.52,0.692,0.924,0.692,1.5
		c0,0.578-0.346,1.27-0.635,1.617c-0.865,0.98-2.712,0.461-2.712,1.326c0,0.404,0.692,0.635,2.02,0.924
		c1.442,0.289,1.962,1.039,1.962,1.904c0,1.443-1.212,2.25-3.174,2.25c-1.731,0-3.001-0.865-3.001-2.135
		c0-1.039,0.52-1.615,1.616-1.904c-0.404-0.289-0.635-0.576-0.635-0.924c0-0.461,0.404-0.807,1.039-0.98v-0.059
		c-0.462-0.172-0.866-0.518-1.097-0.865c-0.231-0.346-0.347-0.807-0.347-1.326c0-1.5,1.097-2.424,2.886-2.424h2.712V118.652
		L123.702,118.652z M120.586,118.768c-0.75,0-1.327,0.578-1.327,1.27c0,0.752,0.52,1.27,1.327,1.27c0.75,0,1.27-0.518,1.27-1.326
		C121.855,119.346,121.278,118.768,120.586,118.768L120.586,118.768z M120.24,124.943c-0.866,0-1.501,0.404-1.501,1.039
		c0,0.691,0.635,1.096,1.847,1.096c1.154,0,1.847-0.404,1.847-1.039C122.433,125.174,121.048,124.943,120.24,124.943L120.24,124.943
		z"/>
	<path fill-rule="evenodd" clip-rule="evenodd" d="M128.377,118.48L128.377,118.48c0.519-0.635,1.27-1.039,1.962-1.039
		c1.27,0,2.309,0.922,2.309,2.826v4.33h-1.328v-4.33c0-1.037-0.52-1.73-1.327-1.73c-0.577,0-1.038,0.289-1.615,1.039v5.021h-1.327
		v-7.041h1.327V118.48L128.377,118.48z"/>
	<path fill-rule="evenodd" clip-rule="evenodd" d="M142.342,123.904c-0.808,0.576-1.5,0.809-2.654,0.809
		c-2.078,0-3.231-1.789-3.231-3.693c0-2.137,1.27-3.578,3.116-3.578c1.73,0,2.885,1.27,2.885,3.865h-4.674
		c0.23,1.387,0.98,2.078,2.25,2.078c0.809,0,1.559-0.289,2.309-0.809V123.904L142.342,123.904z M141.13,120.385
		c0-1.098-0.577-1.732-1.5-1.732c-1.039,0-1.616,0.578-1.789,1.732H141.13L141.13,120.385z"/>
	<path fill-rule="evenodd" clip-rule="evenodd" d="M54.8,58.811v-0.923c-0.519,0.635-1.327,1.039-1.962,1.039
		c-1.327,0-2.25-1.039-2.25-2.828V51.77h1.27v4.444c0,0.981,0.461,1.558,1.385,1.558c0.577,0,1.154-0.346,1.558-0.981V51.77h1.327
		v7.041H54.8L54.8,58.811z"/>
	<path fill-rule="evenodd" clip-rule="evenodd" d="M63.167,52.693h0.058c0.462-0.692,1.212-1.096,1.962-1.096
		c1.27,0,2.25,0.923,2.25,2.885v4.328H66.11v-4.386c0-1.039-0.461-1.673-1.269-1.673c-0.577,0-1.039,0.289-1.674,0.981v5.078H61.84
		V51.77h1.327V52.693L63.167,52.693z"/>
	<path fill-rule="evenodd" clip-rule="evenodd" d="M74.536,58.811h-1.328V51.77h1.328V58.811L74.536,58.811z M73.901,50.443
		c-0.461,0-0.808-0.346-0.808-0.808c0-0.462,0.346-0.808,0.808-0.808c0.404,0,0.75,0.346,0.75,0.808
		C74.651,50.097,74.305,50.443,73.901,50.443L73.901,50.443z"/>
	<polygon fill-rule="evenodd" clip-rule="evenodd" points="79.441,51.77 80.884,51.77 82.672,56.098 84.404,51.77 85.789,51.77 
		82.903,58.926 82.442,58.926 79.441,51.77 	"/>
	<path fill-rule="evenodd" clip-rule="evenodd" d="M95.945,58.118c-0.808,0.519-1.5,0.808-2.654,0.808
		c-2.078,0-3.232-1.789-3.232-3.751c0-2.135,1.27-3.578,3.116-3.578c1.731,0,2.885,1.27,2.885,3.866h-4.674
		c0.23,1.385,0.98,2.135,2.25,2.135c0.808,0,1.559-0.289,2.309-0.866V58.118L95.945,58.118z M94.733,54.54
		c0-1.039-0.577-1.731-1.5-1.731c-1.039,0-1.616,0.635-1.789,1.731H94.733L94.733,54.54z"/>
	<path fill-rule="evenodd" clip-rule="evenodd" d="M102.812,51.77v1.616l0,0c0.692-1.269,1.327-1.789,1.904-1.789
		c0.52,0,1.038,0.289,1.615,0.866l-0.692,1.154c-0.403-0.404-0.923-0.635-1.269-0.635c-0.866-0.058-1.559,0.924-1.559,2.135v3.693
		h-1.327V51.77H102.812L102.812,51.77z"/>
	<path fill-rule="evenodd" clip-rule="evenodd" d="M114.988,53.559c-0.75-0.519-1.442-0.692-1.904-0.692
		c-0.519,0-0.865,0.23-0.865,0.635c0,0.289,0.403,0.692,1.615,1.385c1.039,0.75,1.443,1.27,1.443,1.962
		c0,1.27-0.924,2.077-2.136,2.077c-0.865,0-1.442-0.173-2.308-0.635v-1.5c0.865,0.635,1.615,0.924,2.135,0.924
		c0.52-0.058,0.98-0.289,0.98-0.808c0-0.981-3.115-1.5-3.115-3.347c0-1.212,0.865-1.962,2.192-1.962c0.635,0,1.27,0.231,1.962,0.635
		V53.559L114.988,53.559z"/>
	<path fill-rule="evenodd" clip-rule="evenodd" d="M122.087,58.811h-1.327V51.77h1.327V58.811L122.087,58.811z M121.452,50.443
		c-0.462,0-0.809-0.346-0.809-0.808c0-0.462,0.347-0.808,0.809-0.808c0.403,0,0.75,0.346,0.75,0.808
		C122.202,50.097,121.855,50.443,121.452,50.443L121.452,50.443z"/>
	<path fill-rule="evenodd" clip-rule="evenodd" d="M129.415,51.77h2.078v1.27h-2.078v3.578c0,0.808,0.577,1.039,0.924,1.039
		c0.461,0,0.98-0.173,1.5-0.519v1.327c-0.462,0.231-1.154,0.461-1.616,0.461c-1.384,0-2.135-0.923-2.135-2.193V53.04h-1.154v-0.173
		l2.481-2.539V51.77L129.415,51.77z"/>
	<path fill-rule="evenodd" clip-rule="evenodd" d="M140.957,48.539l-1.674,2.309h-0.808l0.98-2.309H140.957L140.957,48.539z
		 M142.227,58.118c-0.808,0.519-1.501,0.808-2.654,0.808c-2.021,0-3.175-1.789-3.175-3.751c0-2.135,1.27-3.578,3.059-3.578
		s2.886,1.27,2.886,3.866h-4.675c0.231,1.385,0.981,2.135,2.251,2.135c0.808,0,1.559-0.289,2.309-0.866V58.118L142.227,58.118z
		 M141.072,54.54c-0.058-1.039-0.635-1.731-1.558-1.731c-1.039,0-1.616,0.635-1.789,1.731H141.072L141.072,54.54z"/>
</g>
</svg>
