<svg xmlns="http://www.w3.org/2000/svg" viewBox="0 0 1248 600"><g transform="matrix(-1 0 0 1 1302.95-141)"><path d="m19.455 79.25l10.06 100.34 112.63-113.65" fill="#f2fcee" stroke="#f2fcee"/><path d="m142.14 65.937l-112.63 113.65 142.54-28.326" fill="#ecfae7" stroke="#ecfae7"/><path d="m142.14 65.937l29.906 85.33 89.15-124.3" fill="#eaf8e7" stroke="#eaf8e7"/><path d="m261.2 26.969l-89.15 124.3 83.26 11.183z" fill="#e5f7e0" stroke="#e5f7e0"/><path d="m261.2 26.969l-5.89 135.48 88.06-85.29z" fill="#e2f7de" stroke="#e2f7de"/><path d="m343.37 77.16l-88.06 85.29 115.33-11.217" fill="#d8f5d6" stroke="#d8f5d6"/><path d="m343.37 77.16l27.27 74.07 102.09-88.85" fill="#d1f1d5" stroke="#d1f1d5"/><path d="m472.73 62.38l-102.09 88.85 109.23 30.503" fill="#c8efd4" stroke="#c8efd4"/><path d="m472.73 62.38l7.138 119.36 86.983-98.73z" fill="#bdeddc" stroke="#bdeddc"/><path d="m566.85 83l-86.983 98.73 78.18-9.415z" fill="#b6ebd9" stroke="#b6ebd9"/><path d="m566.85 83l-8.8 89.32 93.84-89.98z" fill="#afe6e4" stroke="#afe6e4"/><path d="m651.9 82.34l-93.84 89.98 105.66 11.988z" fill="#a7e3e2" stroke="#a7e3e2"/><path d="m651.9 82.34l11.814 101.97 67.902-62.15z" fill="#9fdee7" stroke="#9fdee7"/><path d="m881.95 31.462l-150.33 90.7 135.44 28.468" fill="#8cc8e3" stroke="#8cc8e3"/><path d="m881.95 31.462l-14.893 119.16 82.938-112.18" fill="#85bde0" stroke="#85bde0"/><path d="m949.99 38.448l-82.938 112.18 74.33 29.3z" fill="#7dbcdc" stroke="#7dbcdc"/><path d="m949.99 38.448l-8.606 141.48 84.77-97.29" fill="#78b3db" stroke="#78b3db"/><path d="m1026.16 82.63l-84.77 97.29 141.56-47.856" fill="#76afd1" stroke="#76afd1"/><path d="m1384.89 40.86l-116.62 76.93 81.74 60.58z" fill="#7874a4" stroke="#7874a4"/><path d="m29.515 179.59l-.211 91.19 121.91-54.12z" fill="#defbe0" stroke="#defbe0"/><path d="m29.515 179.59l121.7 37.07 20.833-65.4" fill="#e5fae1" stroke="#e5fae1"/><path d="m172.05 151.26l-20.833 65.4 104.09-54.21z" fill="#e1fad9" stroke="#e1fad9"/><path d="m255.31 162.45l-104.09 54.21 94.34 40.3z" fill="#d4f9d4" stroke="#d4f9d4"/><path d="m255.31 162.45l-9.753 94.51 111.55-2.273z" fill="#cbf7cd" stroke="#cbf7cd"/><path d="m255.31 162.45l101.79 92.24 13.542-103.45" fill="#cff5ce" stroke="#cff5ce"/><path d="m370.64 151.23l-13.542 103.45 79.62-36.806z" fill="#c2f2c9" stroke="#c2f2c9"/><path d="m370.64 151.23l66.08 66.65 43.15-36.14z" fill="#c3efcb" stroke="#c3efcb"/><path d="m479.87 181.73l-43.15 36.14 94.94 35.502z" fill="#afeecc" stroke="#afeecc"/><path d="m479.87 181.73l51.788 71.65 26.395-81.06z" fill="#acecd2" stroke="#acecd2"/><path d="m558.05 172.32l-26.395 81.06 117.38-16.17z" fill="#9fe8d5" stroke="#9fe8d5"/><path d="m558.05 172.32l90.98 64.89 14.678-52.902z" fill="#9ce6db" stroke="#9ce6db"/><path d="m663.71 184.31l-14.678 52.902 116.36-2.844z" fill="#8bdfdf" stroke="#8bdfdf"/><path d="m663.71 184.31l101.68 50.06-33.781-112.21" fill="#91d9e1" stroke="#91d9e1"/><path d="m731.61 122.16l33.781 112.21 101.66-83.74" fill="#8cd0de" stroke="#8cd0de"/><path d="m867.05 150.63l-101.66 83.74 69.01 44.504" fill="#77cdd7" stroke="#77cdd7"/><path d="m867.05 150.63l-32.652 128.24 106.98-98.94" fill="#75c3d5" stroke="#75c3d5"/><path d="m941.39 179.93l-106.98 98.94 124.58-48.42" fill="#6ac1d0" stroke="#6ac1d0"/><path d="m941.39 179.93l17.599 50.52 123.96-98.37z" fill="#70b4ce" stroke="#70b4ce"/><path d="m1082.94 132.07l-123.96 98.37 123.78 6.932z" fill="#69aec7" stroke="#69aec7"/><path d="m1082.94 132.07l-.175 105.31 62.57-98.69z" fill="#71a3c1" stroke="#71a3c1"/><path d="m1145.34 138.68l-62.57 98.69 56.79 14.606z" fill="#66a2b9" stroke="#66a2b9"/><path d="m1145.34 138.68l-5.784 113.3 82.08 24.2z" fill="#639bb1" stroke="#639bb1"/><path d="m1145.34 138.68l76.3 137.5 46.626-158.39z" fill="#6e91af" stroke="#6e91af"/><path d="m1268.27 117.79l-46.626 158.39 97.33-16.944z" fill="#628ba3" stroke="#628ba3"/><path d="m1268.27 117.79l50.703 141.45 31.04-80.87z" fill="#6a7ea0" stroke="#6a7ea0"/><path d="m29.3 270.78l-59.39 48.989 87.76-2.535z" fill="#c8fbe9" stroke="#c8fbe9"/><path d="m29.3 270.78l28.368 46.45 93.55-100.57z" fill="#cefcdf" stroke="#cefcdf"/><path d="m151.22 216.66l-93.55 100.57 121.16 45.777" fill="#c1f8e0" stroke="#c1f8e0"/><path d="m151.22 216.66l27.611 146.35 66.729-106.05z" fill="#c2f7d7" stroke="#c2f7d7"/><path d="m245.56 256.96l-66.729 106.05 74.67-47.808z" fill="#b3f6da" stroke="#b3f6da"/><path d="m245.56 256.96l7.938 58.24 103.61-60.52z" fill="#bcf5cf" stroke="#bcf5cf"/><path d="m357.1 254.68l-103.61 60.52 101.56 11.986z" fill="#aef3d2" stroke="#aef3d2"/><path d="m357.1 254.68l-2.047 72.5 78.21-5.19z" fill="#a5f0cf" stroke="#a5f0cf"/><path d="m357.1 254.68l76.16 67.31 3.459-104.12z" fill="#aef1c7" stroke="#aef1c7"/><path d="m436.72 217.88l-3.459 104.12 98.4-68.62z" fill="#a4eecc" stroke="#a4eecc"/><path d="m531.66 253.38l-98.4 68.62 107.57 11.725z" fill="#90ebd3" stroke="#90ebd3"/><path d="m531.66 253.38l9.17 80.34 77.57-17.794z" fill="#87e7d9" stroke="#87e7d9"/><path d="m531.66 253.38l86.74 62.55 30.636-78.72z" fill="#8be6d7" stroke="#8be6d7"/><path d="m649.03 237.21l-30.636 78.72 98.89 27.627z" fill="#76dee2" stroke="#76dee2"/><path d="m649.03 237.21l68.25 106.34 48.11-109.19z" fill="#77dbdf" stroke="#77dbdf"/><path d="m765.4 234.37l-48.11 109.19 117.12-64.68" fill="#6bd1dc" stroke="#6bd1dc"/><path d="m834.4 278.87l-117.12 64.68 154.22-24.42" fill="#5dcadd" stroke="#5dcadd"/><path d="m834.4 278.87l37.1 40.27 87.48-88.69z" fill="#5dc2d5" stroke="#5dc2d5"/><path d="m958.99 230.45l-87.48 88.69 62.64 6.071z" fill="#54bdd4" stroke="#54bdd4"/><path d="m958.99 230.45l-24.849 94.76 148.02 19.01z" fill="#4bb3cf" stroke="#4bb3cf"/><path d="m958.99 230.45l123.17 113.77.617-106.84" fill="#55aec4" stroke="#55aec4"/><path d="m1082.77 237.38l-.617 106.84 57.41-92.24z" fill="#51a5bc" stroke="#51a5bc"/><path d="m1139.56 251.98l-57.41 92.24 86.94-18.692z" fill="#479cbc" stroke="#479cbc"/><path d="m1139.56 251.98l29.538 73.55 52.55-49.35z" fill="#4e9ab2" stroke="#4e9ab2"/><path d="m1221.64 276.18l-52.55 49.35 67.14 13.199z" fill="#4590b1" stroke="#4590b1"/><path d="m1221.64 276.18l14.594 62.54 82.73-79.49z" fill="#4c8ba7" stroke="#4c8ba7"/><path d="m1318.97 259.24l-82.73 79.49 120.68-5.682z" fill="#4881a0" stroke="#4881a0"/><path d="m-30.09 319.77l57.02 152.76 30.736-155.3" fill="#b0f4f4" stroke="#b0f4f4"/><path d="m57.671 317.23l-30.736 155.3 123.08 6.276" fill="#9be5f3" stroke="#9be5f3"/><path d="m57.671 317.23l92.34 161.57 28.812-115.8" fill="#a2eded" stroke="#a2eded"/><path d="m178.83 363.01l-28.812 115.8 132.26-7.04" fill="#8cdfe9" stroke="#8cdfe9"/><path d="m178.83 363.01l103.45 108.76-28.784-156.57" fill="#9bebe5" stroke="#9bebe5"/><path d="m253.5 315.2l28.784 156.57 72.78-144.58" fill="#97eddd" stroke="#97eddd"/><path d="m355.06 327.19l-72.78 144.58 97.07 11.07" fill="#81dfe1" stroke="#81dfe1"/><path d="m355.06 327.19l24.294 155.65 80.31-36.12z" fill="#79dee1" stroke="#79dee1"/><path d="m355.06 327.19l104.6 119.53-26.398-124.72" fill="#8ae8d8" stroke="#8ae8d8"/><path d="m433.26 322l26.398 124.72 64.51-24.16z" fill="#75dee2" stroke="#75dee2"/><path d="m433.26 322l90.91 100.56 16.657-88.83z" fill="#7ee4de" stroke="#7ee4de"/><path d="m540.83 333.72l-16.657 88.83 94.23-106.63z" fill="#73e2e3" stroke="#73e2e3"/><path d="m618.4 315.93l-94.23 106.63 121.38 27.975z" fill="#61d6e9" stroke="#61d6e9"/><path d="m618.4 315.93l27.16 134.6 71.73-106.98z" fill="#5fd5e9" stroke="#5fd5e9"/><path d="m717.29 343.55l-71.73 106.98 133.73 6.29z" fill="#47c4ee" stroke="#47c4ee"/><path d="m717.29 343.55l61.997 113.27 92.22-137.69z" fill="#4ac2e6" stroke="#4ac2e6"/><path d="m871.5 319.13l-92.22 137.69 38.962 25z" fill="#37b4e7" stroke="#37b4e7"/><path d="m871.5 319.13l-53.26 162.69 152.11-64.48" fill="#33afe3" stroke="#33afe3"/><path d="m871.5 319.13l98.85 98.21-36.22-92.14z" fill="#3fb3db" stroke="#3fb3db"/><path d="m934.14 325.21l36.22 92.14 111.8-73.12z" fill="#37a8d7" stroke="#37a8d7"/><path d="m1082.15 344.22l-111.8 73.12 61.36 28.393z" fill="#289cd6" stroke="#289cd6"/><path d="m1082.15 344.22l-50.43 101.52 137.92 33.26z" fill="#248cca" stroke="#248cca"/><path d="m1082.15 344.22l87.49 134.78-.547-153.47z" fill="#2e8dc3" stroke="#2e8dc3"/><path d="m1169.1 325.53l.547 153.47 66.59-140.27z" fill="#3186b8" stroke="#3186b8"/><path d="m1236.24 338.73l-66.59 140.27 61.29-.11z" fill="#2276b6" stroke="#2276b6"/><path d="m1236.24 338.73l-5.304 140.16 108.89-13.02z" fill="#236fad" stroke="#236fad"/><path d="m1236.24 338.73l103.58 127.14 17.1-132.82z" fill="#3174a6" stroke="#3174a6"/><path d="m26.935 472.53l9.253 99.58 113.83-93.3z" fill="#86cee8" stroke="#86cee8"/><path d="m150.02 478.81l-113.83 93.3 137.89-.32" fill="#7fc4e0" stroke="#7fc4e0"/><path d="m150.02 478.81l24.07 92.98 65.26-24.706z" fill="#79c6de" stroke="#79c6de"/><path d="m150.02 478.81l89.33 68.27 42.933-75.31z" fill="#79cde0" stroke="#79cde0"/><path d="m282.28 471.77l-42.933 75.31 127.1-23.61z" fill="#71c9d9" stroke="#71c9d9"/><path d="m282.28 471.77l84.17 51.701 12.905-40.631z" fill="#6eccd8" stroke="#6eccd8"/><path d="m379.35 482.84l-12.905 40.631 98.98 1.631z" fill="#64c4d3" stroke="#64c4d3"/><path d="m379.35 482.84l86.08 42.26-5.769-78.38z" fill="#63cad7" stroke="#63cad7"/><path d="m459.66 446.72l5.769 78.38 58.743-102.54z" fill="#60ccdc" stroke="#60ccdc"/><path d="m524.17 422.56l-58.743 102.54 83.2 7.511z" fill="#52c2db" stroke="#52c2db"/><path d="m524.17 422.56l24.456 110.05 96.93-82.08z" fill="#4fc3e3" stroke="#4fc3e3"/><path d="m645.55 450.53l-96.93 82.08 73.57 17.841z" fill="#42b5de" stroke="#42b5de"/><path d="m645.55 450.53l-23.357 99.92 106.27-4.858z" fill="#37aee1" stroke="#37aee1"/><path d="m645.55 450.53l82.91 95.06 50.82-88.77z" fill="#34b0e5" stroke="#34b0e5"/><path d="m779.28 456.82l-50.82 88.77 89.78-63.77z" fill="#28a6e1" stroke="#28a6e1"/><path d="m818.24 481.82l-89.78 63.77 95.39 32.31z" fill="#2397da" stroke="#2397da"/><path d="m818.24 481.82l5.604 96.08 97.26-11.883z" fill="#1b8cd4" stroke="#1b8cd4"/><path d="m818.24 481.82l102.86 84.2 49.25-148.68z" fill="#1a94d9" stroke="#1a94d9"/><path d="m970.35 417.34l-49.25 148.68 110.62-120.28" fill="#168ed4" stroke="#168ed4"/><path d="m1031.72 445.74l-110.62 120.28 155.64.169z" fill="#0f7ac7" stroke="#0f7ac7"/><path d="m1031.72 445.74l45.03 120.45 68.824-21.694z" fill="#0f71bd" stroke="#0f71bd"/><path d="m1031.72 445.74l113.85 98.76 24.07-65.5z" fill="#1374bc" stroke="#1374bc"/><path d="m1169.64 479l-24.07 65.5 77.919-14.834z" fill="#1164ac" stroke="#1164ac"/><path d="m1169.64 479l53.847 50.666 7.442-50.776z" fill="#1465ab" stroke="#1465ab"/><path d="m1230.93 478.89l-7.442 50.776 116.33-63.796z" fill="#145ea3" stroke="#145ea3"/><path d="m1339.82 465.87l-116.33 63.796 142.45 28.06z" fill="#114f98" stroke="#114f98"/><path d="m36.19 572.1l14.407 48.14 123.49-48.46z" fill="#7cb6dd" stroke="#7cb6dd"/><path d="m174.08 571.78l-123.49 48.46 64.64 39.62z" fill="#7aadd2" stroke="#7aadd2"/><path d="m174.08 571.78l-58.845 88.08 138.58-.242z" fill="#75a9c8" stroke="#75a9c8"/><path d="m174.08 571.78l79.73 87.84-14.47-112.55z" fill="#72b2d1" stroke="#72b2d1"/><path d="m239.35 547.08l14.47 112.55 90.25-15.427z" fill="#6caac7" stroke="#6caac7"/><path d="m239.35 547.08l104.72 97.12 22.382-120.73z" fill="#69b7cf" stroke="#69b7cf"/><path d="m366.44 523.47l-22.382 120.73 93.58 25.951z" fill="#5ea8c2" stroke="#5ea8c2"/><path d="m366.44 523.47l71.19 146.68 27.79-145.05" fill="#59b1cc" stroke="#59b1cc"/><path d="m465.43 525.1l-27.79 145.05 119.51-43.493" fill="#4ea3c6" stroke="#4ea3c6"/><path d="m465.43 525.1l91.72 101.56-8.524-94.05z" fill="#4aaed3" stroke="#4aaed3"/><path d="m548.63 532.61l8.524 94.05 65.05-76.21z" fill="#40a8d5" stroke="#40a8d5"/><path d="m622.2 550.45l-65.05 76.21 75.45 4.237z" fill="#399acf" stroke="#399acf"/><path d="m622.2 550.45l10.404 80.44 95.86-85.3z" fill="#309ddb" stroke="#309ddb"/><path d="m728.46 545.59l-95.86 85.3 150.23-12.333z" fill="#2890d4" stroke="#2890d4"/><path d="m728.46 545.59l54.37 72.968 41.02-40.655z" fill="#208cd4" stroke="#208cd4"/><path d="m823.85 577.91l-41.02 40.655 92.99 41.13z" fill="#1c78c3" stroke="#1c78c3"/><path d="m823.85 577.91l51.975 81.79 45.28-93.67z" fill="#1677c6" stroke="#1677c6"/><path d="m921.1 566.02l-45.28 93.67 94.47-41.03z" fill="#106ebe" stroke="#106ebe"/><path d="m921.1 566.02l49.19 52.644 106.45-52.47z" fill="#0a6ec1" stroke="#0a6ec1"/><path d="m1076.75 566.19l-106.45 52.47 74.28 61.15z" fill="#0c5bad" stroke="#0c5bad"/><path d="m1076.75 566.19l-32.17 113.62 80.86-62z" fill="#0c53a5" stroke="#0c53a5"/><path d="m1076.75 566.19l48.695 51.619 20.13-73.31z" fill="#0c5bae" stroke="#0c5bae"/><path d="m1145.57 544.5l-20.13 73.31 98.05-88.15z" fill="#0d57a8" stroke="#0d57a8"/><path d="m1223.49 529.66l-98.05 88.15 133.46 63.714z" fill="#0c4596" stroke="#0c4596"/><path d="m1223.49 529.66l35.412 151.86 107.04-123.8z" fill="#0e3f8e" stroke="#0e3f8e"/><path d="m1365.94 557.72l-107.04 123.8 117.84-19.08z" fill="#0e2978" stroke="#0e2978"/><path d="m-31.599 682.81l-50.33 80.65 145.43 7.255z" fill="#8583b6" stroke="#8583b6"/><path d="m-31.599 682.81l95.09 87.91-12.898-150.47" fill="#8196c1" stroke="#8196c1"/><path d="m50.595 620.25l12.898 150.47 51.743-110.85" fill="#7d96c0" stroke="#7d96c0"/><path d="m115.24 659.87l-51.743 110.85 116.2-11.552" fill="#7785b0" stroke="#7785b0"/><path d="m115.24 659.87l64.45 99.29 70.919-40.812z" fill="#738bb1" stroke="#738bb1"/><path d="m115.24 659.87l135.37 58.48 3.208-58.723z" fill="#7198b9" stroke="#7198b9"/><path d="m253.82 659.63l-3.208 58.723 93.45-74.15z" fill="#6b99b4" stroke="#6b99b4"/><path d="m344.06 644.2l-93.45 74.15 101.73 25.798z" fill="#678daa" stroke="#678daa"/><path d="m344.06 644.2l8.278 99.95 85.3-73.997z" fill="#5d93ad" stroke="#5d93ad"/><path d="m437.64 670.15l-85.3 73.997 130.76 27.527z" fill="#56829f" stroke="#56829f"/><path d="m437.64 670.15l45.46 101.52 78.44-46.969z" fill="#4b7da4" stroke="#4b7da4"/><path d="m437.64 670.15l123.9 54.55-4.389-98.05" fill="#478cb5" stroke="#478cb5"/><path d="m557.15 626.66l4.389 98.05 71.06-93.81z" fill="#3d8bbc" stroke="#3d8bbc"/><path d="m632.6 630.89l-71.06 93.81 93.98 13.87z" fill="#397bb1" stroke="#397bb1"/><path d="m632.6 630.89l22.924 107.68 84.78 6.593z" fill="#3074b1" stroke="#3074b1"/><path d="m632.6 630.89l107.7 114.27 42.529-126.61z" fill="#2a7abd" stroke="#2a7abd"/><path d="m782.83 618.56l-42.529 126.61 88.81-6.716z" fill="#2164ad" stroke="#2164ad"/><path d="m782.83 618.56l46.29 119.89 46.706-78.76z" fill="#1c69b2" stroke="#1c69b2"/><path d="m875.82 659.69l-46.706 78.76 149.77 11.534z" fill="#15529e" stroke="#15529e"/><path d="m875.82 659.69l103.07 90.29-8.598-131.32z" fill="#0f57a8" stroke="#0f57a8"/><path d="m970.29 618.67l8.598 131.32 65.69-70.17z" fill="#0c4da0" stroke="#0c4da0"/><path d="m1044.58 679.81l-65.69 70.17 95.67 6.171z" fill="#0e398a" stroke="#0e398a"/><path d="m1044.58 679.81l29.989 76.34 50.876-138.35z" fill="#0e4190" stroke="#0e4190"/><path d="m1125.44 617.81l-50.876 138.35 101.89 18.479z" fill="#0e2f7f" stroke="#0e2f7f"/><path d="m1125.44 617.81l51.01 156.82 82.44-93.11z" fill="#0e2e7e" stroke="#0e2e7e"/><path d="m1258.9 681.52l-82.44 93.11 76.21-42.869z" fill="#0e1a6b" stroke="#0e1a6b"/><path d="m1258.9 681.52l-6.233 50.24 121.7 20.953z" fill="#101361" stroke="#101361"/><path d="m1258.9 681.52l115.46 71.19 2.379-90.28z" fill="#101562" stroke="#101562"/><path d="m179.69 759.16l63.29 108.27 7.625-149.08z" fill="#726b9a" stroke="#726b9a"/><path d="m250.61 718.35l-7.625 149.08 109.36-123.28z" fill="#696d97" stroke="#696d97"/><path d="m483.1 771.67l47.21 80.945 31.24-127.91z" fill="#486891" stroke="#486891"/><path d="m561.54 724.71l-31.24 127.91 101.29 9.868z" fill="#40628a" stroke="#40628a"/><path d="m561.54 724.71l70.05 137.78 23.931-123.91" fill="#396399" stroke="#396399"/><path d="m655.52 738.58l-23.931 123.91 104.11-22.774" fill="#32598e" stroke="#32598e"/><path d="m655.52 738.58l80.18 101.14 4.601-94.55z" fill="#2c599a" stroke="#2c599a"/><path d="m740.3 745.17l-4.601 94.55 93.41-101.26z" fill="#255095" stroke="#255095"/><path d="m829.12 738.45l-93.41 101.26 114.91 20.319" fill="#214687" stroke="#214687"/><path d="m829.12 738.45l21.495 121.58 128.28-110.05" fill="#163d8a" stroke="#163d8a"/><path d="m1176.46 774.64l65.63 46.17 10.585-89.04z" fill="#100e5c" stroke="#100e5c"/><path d="m1252.67 731.77l-10.585 89.04 132.28-68.08z" fill="#120654" stroke="#120654"/></g></svg>